if (_typeface_js && _typeface_js.loadFace) _typeface_js.loadFace({"glyphs":{"0":{"ha":672,"x_min":0,"x_max":0,"o":"m 247 350 b 357 740 247 533 288 740 b 456 442 429 740 456 604 b 353 128 456 278 403 128 b 247 350 286 128 247 219 z m 67 350 b 353 -25 67 128 172 -25 b 636 442 493 -25 636 199 b 357 893 636 686 558 893 b 67 350 171 893 67 604 z "},"1":{"ha":672,"x_min":0,"x_max":0,"o":"m 238 500 l 315 604 b 304 279 307 500 304 389 b 314 -7 304 183 308 86 l 500 -25 b 481 394 485 124 481 265 b 508 865 481 540 488 694 l 317 903 b 132 589 258 790 197 683 z "},"2":{"ha":672,"x_min":0,"x_max":0,"o":"m 183 514 b 401 732 256 635 329 732 b 463 654 443 732 463 700 b 50 85 463 556 258 258 l 110 -36 b 465 31 261 15 368 31 b 610 24 510 31 558 28 l 626 181 b 465 190 575 190 524 190 b 354 179 435 190 385 190 b 629 654 514 361 629 560 b 401 899 629 786 554 899 b 44 611 243 899 122 735 z "},"3":{"ha":672,"x_min":0,"x_max":0,"o":"m 175 647 b 371 733 258 706 317 733 b 425 683 400 733 425 718 b 122 481 425 626 325 549 l 169 338 b 278 357 214 351 250 357 b 410 261 365 357 410 308 b 243 153 410 196 310 153 b 108 168 206 153 157 153 l 133 15 b 299 -14 192 -7 256 -14 b 576 261 410 -14 576 93 b 438 463 576 340 529 415 b 599 683 544 538 599 617 b 378 893 599 814 501 893 b 86 779 276 893 194 857 z "},"4":{"ha":672,"x_min":0,"x_max":0,"o":"m 553 -42 b 546 225 547 44 546 140 l 618 225 l 638 371 l 549 379 b 590 883 557 622 590 883 l 361 906 b 24 322 253 786 24 361 l 189 210 b 379 226 260 218 322 226 b 386 -28 379 146 381 51 z m 231 371 b 414 724 263 443 340 596 b 381 381 400 631 388 514 b 231 371 331 381 281 378 z "},"5":{"ha":672,"x_min":0,"x_max":0,"o":"m 200 363 b 304 381 260 375 293 381 b 444 292 381 381 444 344 b 129 111 444 221 351 160 l 168 -39 b 625 306 489 29 625 151 b 317 532 625 451 503 532 b 346 724 328 604 339 671 b 589 744 425 736 518 744 l 589 897 b 197 847 489 897 339 878 b 119 426 197 847 150 586 z "},"6":{"ha":672,"x_min":0,"x_max":0,"o":"m 324 901 b 85 306 190 707 85 549 b 357 -43 85 101 182 -43 b 632 299 501 -43 632 106 b 415 539 632 464 519 539 b 288 513 379 539 329 529 b 538 883 335 643 426 767 z m 374 386 b 458 271 422 386 458 350 b 357 110 458 181 408 110 b 258 306 294 110 258 190 b 260 344 258 318 260 332 b 374 386 307 371 347 386 z "},"7":{"ha":672,"x_min":0,"x_max":0,"o":"m 557 901 b 108 864 369 892 224 879 l 139 714 b 440 744 235 726 338 736 b 164 -6 311 510 215 264 l 328 -21 b 601 744 371 221 469 478 z "},"8":{"ha":672,"x_min":0,"x_max":0,"o":"m 75 217 b 354 -46 75 58 206 -46 b 629 226 508 -46 629 100 b 501 435 629 322 572 394 b 631 667 576 492 631 572 b 371 918 631 763 550 918 b 96 633 232 918 96 786 b 186 438 96 544 136 483 b 75 217 128 385 75 311 z m 463 213 b 354 107 463 142 406 107 b 242 217 294 107 242 150 b 336 361 242 283 290 331 b 463 213 392 329 463 286 z m 263 647 b 371 765 263 715 313 765 b 464 667 433 765 464 699 b 338 521 464 603 403 560 b 263 647 297 546 263 607 z "},"9":{"ha":672,"x_min":0,"x_max":0,"o":"m 324 -71 b 639 542 485 129 639 363 b 369 907 639 822 482 907 b 61 557 210 907 61 733 b 306 292 61 418 158 292 b 410 315 340 292 375 303 b 192 22 347 215 272 114 z m 319 444 b 228 557 264 444 228 499 b 369 754 228 656 296 754 b 472 556 413 754 472 708 b 467 507 472 540 469 524 b 319 444 419 471 369 444 z "}," ":{"ha":336,"x_min":0,"x_max":0,"o":""},"!":{"ha":386,"x_min":0,"x_max":0,"o":"m 242 258 b 335 976 256 519 279 760 l 132 1015 b 106 639 115 892 106 767 b 131 272 106 521 115 399 z m 101 203 b 104 147 103 183 104 164 b 90 0 104 93 104 51 l 256 -32 b 278 97 269 0 278 51 b 263 186 278 131 278 158 z "},"\"":{"ha":483,"x_min":0,"x_max":0,"o":"m 51 978 b 35 603 49 854 46 742 l 163 592 b 201 965 183 729 196 833 z m 282 978 b 265 603 279 854 276 742 l 393 592 b 432 965 414 729 426 833 z "},"#":{"ha":1157,"x_min":0,"x_max":0,"o":"m 725 1008 b 681 739 707 925 693 831 b 533 736 629 739 581 738 b 557 968 540 815 547 892 l 396 981 b 371 731 386 897 378 814 b 196 728 311 729 253 728 l 179 575 b 357 578 239 575 299 575 b 342 413 353 522 347 467 b 163 410 281 411 221 410 l 146 257 b 325 260 206 257 265 258 b 283 -25 313 158 300 64 l 440 -40 b 489 265 460 54 475 161 b 633 268 538 267 586 268 b 608 0 626 175 618 88 l 769 0 b 797 265 781 88 789 176 b 950 253 850 264 900 260 l 988 406 b 810 418 932 413 871 417 b 825 583 814 472 819 524 b 983 571 881 582 932 578 l 1021 724 b 843 736 965 731 906 735 b 882 996 854 821 867 900 z m 661 586 b 646 421 658 529 653 475 b 506 418 597 421 551 419 b 521 583 511 475 517 531 b 661 586 568 585 615 586 z "},"$":{"ha":672,"x_min":0,"x_max":0,"o":"m 582 503 b 611 649 603 546 611 590 b 439 856 611 713 546 821 b 436 1006 436 896 436 931 l 297 1017 b 300 857 297 939 300 900 b 117 622 203 831 117 750 b 296 342 117 492 206 407 b 404 214 365 292 404 258 b 353 172 404 185 379 172 b 164 281 281 172 203 244 l 79 199 b 294 15 115 139 186 42 b 279 -149 293 -47 290 -71 l 418 -161 b 433 18 431 -79 433 -50 b 603 243 526 44 603 118 b 381 501 603 356 515 419 b 303 622 336 528 303 576 b 369 690 303 667 338 690 b 440 621 410 690 440 656 b 425 550 440 596 435 575 z "},"%":{"ha":939,"x_min":0,"x_max":0,"o":"m 167 594 b 228 768 167 674 189 768 b 282 644 267 768 282 713 b 225 514 282 575 253 514 b 167 594 189 514 167 547 z m 39 594 b 225 388 39 472 108 388 b 408 644 317 388 408 511 b 228 893 408 779 358 893 b 39 594 108 893 39 735 z m 681 172 b 742 346 681 251 703 346 b 796 222 781 346 796 290 b 739 92 796 153 767 92 b 681 172 703 92 681 125 z m 553 172 b 739 -35 553 50 622 -35 b 922 222 831 -35 922 89 b 742 471 922 357 872 471 b 553 172 622 471 553 313 z m 254 -32 b 867 869 451 317 635 611 l 778 925 b 147 8 551 676 347 357 z "},"&":{"ha":749,"x_min":0,"x_max":0,"o":"m 672 358 b 544 269 639 335 594 303 b 424 411 503 315 461 363 b 664 738 547 507 664 594 b 415 961 664 857 567 961 b 119 658 267 961 119 832 b 196 433 119 588 150 511 b 26 194 101 360 26 289 b 285 -14 26 68 138 -14 b 510 63 346 -14 428 19 b 646 -68 564 10 613 -35 l 785 29 b 658 151 754 60 710 101 b 792 247 711 188 758 221 z m 300 672 b 401 801 300 747 344 801 b 490 710 453 801 490 767 b 339 542 490 661 419 601 b 300 672 314 589 300 632 z m 285 139 b 207 208 240 139 207 169 b 285 308 207 238 239 272 b 396 181 319 264 357 221 b 285 139 349 156 308 139 z "},"'":{"ha":251,"x_min":0,"x_max":0,"o":"m 51 978 b 35 603 49 854 46 742 l 163 592 b 201 965 183 729 196 833 z "},"(":{"ha":492,"x_min":0,"x_max":0,"o":"m 310 1019 b 139 260 217 844 139 549 b 274 -342 139 38 182 -174 l 454 -278 b 326 288 382 -128 326 71 b 443 944 326 539 381 797 z "},")":{"ha":492,"x_min":0,"x_max":0,"o":"m 190 -339 b 361 421 283 -164 361 132 b 226 1022 361 643 318 854 l 46 958 b 174 393 118 808 174 610 b 57 -264 174 142 119 -117 z "},"*":{"ha":660,"x_min":0,"x_max":0,"o":"m 386 915 b 372 976 386 935 382 956 b 211 928 317 969 260 957 b 282 743 242 872 269 813 b 86 828 214 775 154 828 b 68 826 81 828 74 828 b 57 725 61 793 57 758 b 64 657 57 703 58 679 b 199 672 107 665 151 672 b 263 668 219 672 240 671 b 142 549 211 613 168 585 b 117 490 129 531 121 513 b 276 433 165 463 219 439 b 326 626 283 497 294 563 b 403 475 363 560 376 511 b 451 432 417 457 432 443 b 554 567 493 471 532 514 b 386 674 496 593 438 625 b 554 700 460 688 510 686 b 610 733 575 707 593 718 b 514 872 586 785 557 835 b 360 744 469 825 422 779 b 386 915 368 821 386 869 z "},"+":{"ha":1157,"x_min":0,"x_max":0,"o":"m 997 500 b 808 507 939 506 875 507 b 667 504 763 507 715 506 b 686 821 669 615 676 722 l 492 838 b 471 494 482 732 475 617 b 433 492 458 493 446 492 b 168 476 347 485 261 479 l 176 310 b 447 325 269 314 361 319 b 469 326 454 325 461 325 l 469 319 b 476 11 469 219 472 119 l 671 -1 b 664 319 667 107 664 219 l 664 338 b 808 340 713 339 760 340 b 978 333 864 340 919 339 z "},",":{"ha":361,"x_min":0,"x_max":0,"o":"m 104 274 b 53 -157 94 133 79 4 l 181 -167 b 289 213 228 -40 275 86 z "},"-":{"ha":450,"x_min":0,"x_max":0,"o":"m 393 389 b 317 393 369 392 344 393 b 47 381 231 393 138 381 l 64 231 b 317 243 149 231 238 243 b 399 239 343 243 371 242 z "},".":{"ha":361,"x_min":0,"x_max":0,"o":"m 81 238 b 82 133 82 204 82 168 b 69 -14 82 82 75 33 l 257 -29 b 276 118 272 10 276 64 b 261 221 276 154 271 190 z "},"/":{"ha":569,"x_min":0,"x_max":0,"o":"m 106 -115 b 581 950 238 196 407 685 l 458 1015 b -33 -101 264 667 107 240 z "},":":{"ha":361,"x_min":0,"x_max":0,"o":"m 81 238 b 82 133 82 204 82 168 b 69 -14 82 82 75 33 l 257 -29 b 276 118 272 10 276 64 b 261 221 276 154 271 190 z m 89 663 b 90 558 90 629 90 593 b 78 411 90 507 83 458 l 265 396 b 285 543 281 435 285 489 b 269 646 285 579 279 615 z "},";":{"ha":361,"x_min":0,"x_max":0,"o":"m 89 663 b 90 558 90 629 90 593 b 78 411 90 507 83 458 l 265 396 b 285 543 281 435 285 489 b 269 646 285 579 279 615 z m 104 274 b 53 -157 94 133 79 4 l 181 -167 b 289 213 228 -40 275 86 z "},"<":{"ha":1157,"x_min":0,"x_max":0,"o":"m 178 347 b 943 19 407 215 650 100 l 979 174 b 397 414 751 242 569 325 b 972 653 628 493 804 569 l 938 826 b 193 499 751 725 496 606 z "},"=":{"ha":1157,"x_min":0,"x_max":0,"o":"m 1000 640 b 665 656 896 653 775 656 b 171 644 482 656 326 644 l 171 478 b 679 489 344 479 513 489 b 975 474 788 489 883 486 z m 1000 336 b 665 351 896 349 775 351 b 171 340 482 351 326 340 l 171 174 b 679 185 344 175 513 185 b 975 169 788 185 883 182 z "},">":{"ha":1157,"x_min":0,"x_max":0,"o":"m 979 499 b 214 826 750 631 507 746 l 178 672 b 760 432 406 604 588 521 b 185 193 529 353 353 276 l 219 19 b 964 347 406 121 661 240 z "},"?":{"ha":582,"x_min":0,"x_max":0,"o":"m 119 668 b 325 806 201 749 275 806 b 388 744 367 806 388 775 b 247 543 388 688 315 621 b 132 347 178 464 132 406 b 176 272 132 311 150 290 l 294 258 b 288 301 290 272 288 286 b 350 421 288 331 300 368 b 554 731 454 532 554 622 b 325 972 554 863 474 972 b -8 779 211 972 99 893 z m 143 203 b 146 147 144 183 146 164 b 132 0 146 93 146 51 l 297 -32 b 319 97 311 0 319 51 b 304 186 319 131 319 158 z "},"@":{"ha":1158,"x_min":0,"x_max":0,"o":"m 692 -68 b 574 -94 653 -85 613 -94 b 197 357 378 -94 197 39 b 592 888 197 682 386 888 b 961 438 783 888 961 758 b 843 225 961 333 922 225 b 786 283 819 225 794 242 b 796 697 794 438 796 475 l 633 711 b 636 669 635 696 636 683 b 504 703 596 689 554 703 b 325 325 406 703 325 478 b 515 99 325 197 363 99 b 658 232 571 99 617 149 b 833 82 678 131 751 82 b 1111 433 989 82 1111 231 b 590 1008 1111 840 861 1008 b 47 361 307 1008 47 757 b 574 -214 47 -49 300 -214 b 738 -179 628 -214 683 -201 z m 639 435 b 535 249 604 322 558 249 b 488 325 497 249 488 282 b 572 567 488 422 522 567 b 640 540 594 567 618 558 z "},"A":{"ha":717,"x_min":0,"x_max":0,"o":"m 490 14 l 692 -3 l 510 939 l 253 961 l 4 -46 l 199 -62 l 251 199 l 458 207 z m 368 779 l 436 353 l 281 347 z "},"B":{"ha":726,"x_min":0,"x_max":0,"o":"m 101 924 b 115 522 110 793 115 668 b 96 -1 115 361 107 169 l 285 -18 b 333 -21 300 -19 315 -21 b 699 268 497 -21 699 113 b 538 486 699 388 631 449 b 710 731 631 535 710 611 b 397 974 710 869 568 974 b 101 924 306 974 196 953 z m 383 810 b 522 711 458 810 522 768 b 300 542 522 624 372 547 b 294 793 300 624 297 710 b 383 810 325 803 354 810 z m 513 268 b 353 149 513 204 425 149 b 293 153 329 149 310 150 b 299 399 296 236 297 318 b 513 268 424 388 513 336 z "},"C":{"ha":669,"x_min":0,"x_max":0,"o":"m 626 533 b 386 976 622 728 610 976 b 36 360 133 976 36 600 b 349 -42 36 138 140 -42 b 656 310 528 -42 611 99 l 479 324 b 349 136 454 233 425 136 b 221 374 260 136 221 232 b 374 799 221 511 283 799 b 447 550 444 799 447 650 z "},"D":{"ha":697,"x_min":0,"x_max":0,"o":"m 83 926 b 96 522 90 794 96 669 b 76 -1 96 361 88 169 b 265 -21 135 -8 253 -21 b 669 536 529 -21 669 265 b 331 974 669 761 560 974 b 83 926 253 974 163 954 z m 490 507 b 300 149 490 325 382 149 b 272 160 289 149 279 151 b 281 483 278 261 281 372 b 275 796 281 588 278 693 b 338 807 297 804 317 807 b 490 507 418 807 490 685 z "},"E":{"ha":621,"x_min":0,"x_max":0,"o":"m 574 182 b 285 140 494 167 393 149 b 283 381 283 214 283 283 b 563 401 364 389 482 400 l 536 554 b 286 536 446 553 369 549 b 293 775 288 614 290 696 b 585 785 389 782 493 785 l 585 956 b 121 919 468 956 313 949 b 99 346 110 763 99 510 b 104 -6 99 214 101 104 l 318 -25 b 597 29 447 -25 533 0 z "},"F":{"ha":586,"x_min":0,"x_max":0,"o":"m 585 956 b 121 919 468 956 313 949 b 99 346 110 763 99 510 b 101 -6 99 233 100 107 l 289 -26 b 283 356 285 97 283 235 b 563 375 376 367 471 372 l 535 528 b 285 507 446 528 368 518 b 293 775 288 576 289 706 b 585 785 390 782 493 785 z "},"G":{"ha":692,"x_min":0,"x_max":0,"o":"m 625 538 b 638 661 633 582 638 624 b 372 976 638 901 478 976 b 56 392 176 976 56 690 b 374 -39 56 111 185 -39 b 668 351 551 -39 668 206 b 660 467 668 356 664 431 b 343 436 554 454 453 443 l 372 299 b 479 308 413 306 440 308 b 353 111 463 192 433 111 b 246 425 283 111 246 225 b 386 813 246 608 322 813 b 468 631 444 813 468 719 b 463 551 468 601 467 572 z "},"H":{"ha":749,"x_min":0,"x_max":0,"o":"m 496 1008 b 489 549 492 863 489 704 l 281 536 b 279 696 281 588 279 644 b 288 944 279 779 282 863 l 104 961 b 93 551 96 826 93 689 b 108 -3 93 368 99 183 l 297 -19 b 285 382 292 115 288 247 l 489 394 b 504 11 490 242 494 101 l 682 -4 b 667 533 674 138 667 332 b 679 992 667 686 671 844 z "},"I":{"ha":401,"x_min":0,"x_max":0,"o":"m 136 978 b 124 511 128 807 124 661 b 142 -18 124 346 129 178 l 329 -35 b 311 488 317 122 311 304 b 324 961 311 651 315 815 z "},"J":{"ha":569,"x_min":0,"x_max":0,"o":"m 14 335 b 3 242 7 303 3 272 b 261 -42 3 86 101 -42 b 510 333 446 -42 510 192 b 490 957 510 485 510 707 l 294 974 b 319 333 314 724 319 485 b 240 128 319 256 303 128 b 172 258 200 128 172 185 b 178 318 172 276 174 297 z "},"K":{"ha":715,"x_min":0,"x_max":0,"o":"m 538 981 b 274 499 489 875 385 682 b 288 925 274 660 278 804 l 97 943 b 83 451 88 811 83 632 b 93 8 83 304 86 160 l 283 -12 b 274 399 275 122 274 265 b 582 -31 364 232 467 82 l 710 114 b 442 447 611 200 519 324 b 713 911 551 617 658 803 z "},"L":{"ha":539,"x_min":0,"x_max":0,"o":"m 265 -4 b 560 38 389 15 474 28 l 532 199 b 286 171 453 190 364 182 b 279 479 279 274 279 378 b 300 949 279 632 286 789 l 115 965 b 100 535 104 824 100 679 b 118 8 100 363 107 185 z "},"M":{"ha":903,"x_min":0,"x_max":0,"o":"m 693 724 b 663 -18 688 481 686 217 l 853 -36 b 865 451 865 118 865 289 b 854 943 865 629 858 782 l 592 967 b 454 417 554 779 511 601 b 351 907 422 603 393 757 l 90 928 b 67 479 72 768 67 625 b 78 -8 67 326 72 172 l 261 -25 b 232 742 246 256 239 488 l 243 740 b 388 83 300 496 326 325 l 514 72 b 682 725 593 332 632 526 z "},"N":{"ha":756,"x_min":0,"x_max":0,"o":"m 238 -42 b 236 614 238 192 238 408 b 529 4 342 425 439 200 l 685 -11 b 696 332 690 81 696 228 b 694 978 696 557 694 778 l 521 993 b 540 332 531 792 536 557 b 293 908 444 504 368 701 l 108 926 b 71 143 89 694 71 411 b 75 -24 71 88 72 33 z "},"O":{"ha":724,"x_min":0,"x_max":0,"o":"m 47 431 b 365 -47 47 90 200 -47 b 694 503 528 -47 694 167 b 382 981 694 842 544 981 b 47 431 207 981 47 767 z m 232 431 b 382 815 232 665 304 815 b 510 503 449 815 510 725 b 365 117 510 267 436 117 b 232 431 296 117 232 208 z "},"P":{"ha":646,"x_min":0,"x_max":0,"o":"m 285 -42 b 281 278 282 68 281 178 b 660 657 497 339 660 476 b 346 985 660 863 496 985 b 104 942 265 985 183 971 b 90 311 96 721 90 522 b 96 -24 90 207 92 94 z m 289 815 b 346 822 307 818 324 822 b 469 657 406 822 469 760 b 281 436 469 560 397 474 b 289 815 282 563 285 686 z "},"Q":{"ha":724,"x_min":0,"x_max":0,"o":"m 47 431 b 365 -47 47 90 200 -47 b 465 -19 399 -47 432 -37 b 540 -119 489 -56 515 -89 l 719 -53 b 583 90 665 -6 621 40 b 694 503 649 186 694 328 b 382 981 694 842 544 981 b 47 431 207 981 47 767 z m 232 431 b 382 815 232 665 304 815 b 510 503 449 815 510 725 b 469 235 510 393 493 301 l 342 244 b 383 119 350 203 364 161 b 365 117 378 118 371 117 b 232 431 296 117 232 208 z "},"R":{"ha":729,"x_min":0,"x_max":0,"o":"m 275 -33 b 288 368 281 99 285 239 b 601 -62 408 208 518 63 l 735 36 b 476 385 653 154 564 275 b 708 700 600 465 708 575 b 421 997 708 897 574 997 b 103 925 319 997 203 972 b 104 679 104 843 104 761 b 86 -12 104 449 99 218 z m 293 811 b 421 835 340 828 382 835 b 539 707 482 835 539 797 b 292 463 539 638 431 528 b 293 811 293 576 293 696 z "},"S":{"ha":660,"x_min":0,"x_max":0,"o":"m 592 550 b 628 707 619 603 628 672 b 349 989 628 832 518 989 b 65 696 203 989 65 871 b 297 372 65 538 179 454 b 428 206 363 328 428 276 b 338 118 428 142 376 118 b 156 317 260 118 193 217 l 21 251 b 343 -44 74 132 167 -44 b 617 229 472 -44 617 51 b 367 532 617 375 519 436 b 256 699 300 574 256 631 b 351 826 256 761 292 826 b 438 715 397 826 438 788 b 419 607 438 686 431 649 z "},"T":{"ha":538,"x_min":0,"x_max":0,"o":"m 376 -18 b 371 464 374 138 371 297 b 379 826 371 593 374 693 b 551 839 475 835 551 839 l 525 993 b 265 979 525 993 394 989 b -4 944 132 968 -4 944 l 26 783 b 196 807 26 783 101 796 b 188 464 189 642 188 578 b 201 -3 188 307 193 144 z "},"U":{"ha":749,"x_min":0,"x_max":0,"o":"m 107 951 b 75 326 86 735 75 549 b 378 -24 75 158 196 -24 b 690 506 654 -24 690 340 b 671 957 690 647 681 814 l 482 976 b 500 506 492 822 500 658 b 378 140 500 392 488 140 b 265 326 310 140 265 235 b 296 933 265 544 275 726 z "},"V":{"ha":660,"x_min":0,"x_max":0,"o":"m 29 944 b 250 6 88 619 163 314 l 410 -8 b 686 979 519 297 626 674 l 503 994 b 346 264 463 756 407 500 l 340 263 b 208 928 276 521 235 756 z "},"W":{"ha":921,"x_min":0,"x_max":0,"o":"m 415 869 b 311 306 392 679 351 492 l 304 304 b 235 946 275 553 250 781 l 56 961 b 215 6 93 633 153 318 l 349 -6 b 463 451 393 136 429 293 b 568 22 493 311 526 165 l 701 11 b 929 956 792 304 879 663 l 747 971 b 619 306 721 753 669 521 l 613 304 b 554 857 590 517 565 715 z "},"X":{"ha":643,"x_min":0,"x_max":0,"o":"m 32 49 l 178 -42 b 324 306 210 56 263 174 b 440 8 367 188 410 79 l 628 -11 b 425 451 579 94 499 271 b 664 857 503 599 590 747 l 529 972 b 332 607 468 868 399 742 b 263 910 299 728 275 819 l 69 926 b 226 467 100 788 146 647 b 32 49 144 311 85 178 z "},"Y":{"ha":617,"x_min":0,"x_max":0,"o":"m 419 -29 b 414 185 415 43 414 115 b 417 381 414 249 415 318 b 664 976 518 593 597 786 l 503 992 b 324 538 460 857 400 706 b 196 910 257 686 219 790 l 22 926 b 224 372 36 804 124 583 l 224 265 b 236 -10 224 167 228 76 z "},"Z":{"ha":636,"x_min":0,"x_max":0,"o":"m 76 -21 b 322 10 201 0 278 10 b 588 -11 408 10 504 0 l 611 154 b 369 174 538 165 454 174 b 268 169 336 174 301 172 b 646 831 407 388 521 593 l 622 951 b 76 911 388 949 182 933 l 103 749 b 438 781 196 763 311 774 b 54 125 317 544 206 367 z "},"[":{"ha":518,"x_min":0,"x_max":0,"o":"m 250 -331 b 517 -292 346 -326 449 -311 l 508 -156 b 290 -168 443 -156 354 -168 b 274 189 282 -62 274 72 b 296 856 274 379 281 603 b 363 860 319 857 340 860 b 526 854 433 860 490 857 l 485 993 b 329 1006 431 1006 383 1006 b 90 986 261 1006 186 1000 b 107 383 101 813 107 519 b 90 -315 107 239 97 -129 z "},"\\":{"ha":569,"x_min":0,"x_max":0,"o":"m 611 -101 b 119 1015 471 240 314 667 l -3 950 b 472 -115 171 685 340 196 z "},"]":{"ha":518,"x_min":0,"x_max":0,"o":"m 297 1006 b 31 967 201 1001 99 986 l 39 831 b 257 843 104 831 193 843 b 274 486 265 738 274 603 b 251 -181 274 296 267 72 b 185 -185 228 -182 207 -185 b 21 -179 114 -185 57 -182 l 63 -318 b 218 -331 117 -331 164 -331 b 457 -311 286 -331 361 -325 b 440 292 446 -137 440 156 b 457 990 440 436 450 804 z "},"^":{"ha":1389,"x_min":0,"x_max":0,"o":"m 628 1031 b 258 543 479 885 347 731 l 426 493 b 694 853 503 635 594 746 b 961 500 782 711 869 604 l 1149 549 b 779 1015 1035 665 899 826 z "},"_":{"ha":694,"x_min":0,"x_max":0,"o":"m 696 -171 b 361 -156 592 -158 471 -156 b 0 -167 231 -156 117 -167 l 0 -319 b 375 -308 132 -319 247 -308 b 671 -324 483 -308 579 -308 z "},"`":{"ha":694,"x_min":0,"x_max":0,"o":"m 449 794 b 193 940 368 847 289 899 l 118 817 b 386 715 206 796 292 764 z "},"a":{"ha":542,"x_min":0,"x_max":0,"o":"m 192 397 b 271 518 203 453 233 518 b 324 408 318 518 324 456 l 324 371 b 46 153 183 368 46 282 b 213 -14 46 53 108 -14 b 336 24 257 -14 300 3 l 347 -21 l 464 -31 b 481 389 474 118 481 263 b 288 669 481 535 435 669 b 64 410 164 669 89 539 z m 317 125 b 240 108 286 113 261 108 b 188 153 208 108 188 125 b 319 242 188 186 224 233 z "},"b":{"ha":599,"x_min":0,"x_max":0,"o":"m 103 1018 b 88 507 93 838 88 693 b 96 6 88 321 88 172 l 218 -7 b 215 49 217 11 215 29 b 360 -29 254 -4 307 -29 b 556 411 486 -29 556 207 b 424 654 556 521 521 654 b 244 507 364 654 299 593 b 261 1004 244 690 250 822 z m 244 269 b 360 474 292 422 326 474 b 400 350 396 474 400 422 b 313 119 400 257 363 119 b 246 161 278 119 267 132 b 244 269 246 196 244 236 z "},"c":{"ha":492,"x_min":0,"x_max":0,"o":"m 454 343 b 467 413 463 363 467 386 b 281 663 467 526 401 663 b 44 224 89 663 44 367 b 258 -29 44 40 156 -29 b 479 192 357 -29 432 63 l 376 265 b 258 119 332 181 290 119 b 207 224 233 119 207 149 b 281 500 207 315 221 500 b 325 400 307 500 325 446 b 322 356 325 385 324 365 z "},"d":{"ha":569,"x_min":0,"x_max":0,"o":"m 344 1019 b 349 801 347 938 349 868 b 347 629 349 742 347 686 b 215 663 307 649 265 663 b 36 257 117 663 36 421 b 226 3 36 113 74 3 b 356 122 276 3 318 47 b 364 -8 360 47 364 -8 l 488 -19 b 510 722 501 236 510 469 b 507 1006 510 814 510 907 z m 350 367 b 246 153 315 238 269 153 b 199 257 208 153 199 197 b 283 526 199 365 233 526 b 351 500 306 526 329 517 z "},"e":{"ha":510,"x_min":0,"x_max":0,"o":"m 488 278 b 286 663 486 383 489 663 b 35 246 93 663 35 413 b 242 -29 35 71 131 -29 b 474 139 369 -29 433 67 l 368 201 b 256 100 342 157 303 100 b 200 222 229 100 206 146 b 488 278 290 235 418 258 z m 286 526 b 331 353 318 526 331 440 b 203 324 289 342 244 332 b 286 526 208 426 243 526 z "},"f":{"ha":399,"x_min":0,"x_max":0,"o":"m 50 417 b 100 426 64 421 82 424 b 107 142 101 321 104 238 b 115 -7 108 97 113 50 l 278 -24 b 269 147 275 39 271 99 b 263 449 265 250 263 335 b 413 456 317 456 369 456 l 413 585 b 261 578 368 585 317 582 l 261 618 b 303 854 261 768 278 854 b 351 699 333 854 351 793 l 481 685 b 303 1021 481 890 418 1021 b 99 618 182 1021 99 872 l 99 557 b 21 542 68 551 42 547 z "},"g":{"ha":561,"x_min":0,"x_max":0,"o":"m 268 -186 b 142 -81 208 -186 168 -132 l 25 -131 b 289 -336 72 -225 164 -336 b 513 206 467 -336 513 -28 b 531 574 513 401 521 525 l 433 588 b 272 658 394 625 339 658 b 38 204 171 658 38 433 b 208 -11 38 51 115 -11 b 364 121 271 -11 321 43 b 268 -186 364 -49 326 -186 z m 368 368 b 242 117 342 208 264 117 b 201 204 221 117 201 143 b 307 517 201 360 263 517 b 371 474 331 517 350 496 z "},"h":{"ha":590,"x_min":0,"x_max":0,"o":"m 78 1001 b 88 579 85 874 88 731 b 69 -6 88 371 82 160 l 232 -21 b 246 294 238 72 243 179 b 342 489 274 400 310 489 b 379 415 379 489 379 442 b 369 14 379 315 376 160 l 531 -1 b 546 419 542 158 546 314 b 382 644 546 496 504 644 b 251 565 335 644 290 614 b 240 986 251 711 247 864 z "},"i":{"ha":328,"x_min":0,"x_max":0,"o":"m 96 663 l 96 -4 l 254 -19 l 254 647 z m 107 907 l 93 753 l 249 733 l 263 889 z "},"j":{"ha":350,"x_min":0,"x_max":0,"o":"m 119 650 b 126 -21 126 453 126 101 b 58 -178 126 -126 92 -178 b -22 -136 44 -178 13 -162 l -71 -243 b 97 -340 -19 -307 57 -340 b 282 -7 190 -340 282 -232 b 269 635 282 107 281 449 z m 128 907 l 114 753 l 269 733 l 283 889 z "},"k":{"ha":569,"x_min":0,"x_max":0,"o":"m 461 690 b 244 347 413 579 342 467 b 265 1003 244 576 253 799 l 103 1015 b 82 326 89 806 82 563 b 88 -11 82 214 83 97 l 250 -26 b 244 244 246 61 244 153 b 472 -32 336 149 410 65 l 578 68 b 406 304 528 154 474 225 b 572 593 472 396 529 493 z "},"l":{"ha":328,"x_min":0,"x_max":0,"o":"m 110 1015 b 89 326 97 806 89 563 b 94 -11 89 214 90 97 l 258 -26 b 251 326 251 88 251 208 b 272 1003 251 563 260 792 z "},"m":{"ha":899,"x_min":0,"x_max":0,"o":"m 92 649 b 83 367 86 556 83 460 b 99 -10 83 242 89 115 l 261 -25 b 249 239 254 65 250 153 b 357 478 269 354 328 478 b 392 349 385 478 392 407 b 381 29 392 250 388 151 l 543 14 b 554 324 550 125 553 231 b 635 525 565 432 611 525 b 679 397 671 525 679 456 b 653 -7 679 272 668 143 l 814 -21 b 842 376 832 131 842 260 b 649 667 842 511 813 667 b 506 561 594 667 546 619 b 376 619 478 597 436 619 b 231 504 322 619 275 574 b 207 640 224 549 217 596 z "},"n":{"ha":589,"x_min":0,"x_max":0,"o":"m 71 601 b 63 367 65 522 63 446 b 78 -10 63 242 68 115 l 240 -25 b 229 181 236 46 232 114 b 329 511 240 328 301 511 b 375 329 365 511 375 415 b 360 29 375 236 371 144 l 522 14 b 540 356 535 139 540 256 b 357 661 540 497 513 661 b 194 500 296 661 240 592 b 174 590 188 529 179 560 z "},"o":{"ha":511,"x_min":0,"x_max":0,"o":"m 196 250 b 279 528 196 344 224 528 b 338 364 325 528 338 435 b 265 93 338 249 308 93 b 196 250 231 93 196 124 z m 33 263 b 265 -36 33 24 146 -36 b 500 350 425 -36 500 169 b 279 657 500 482 451 657 b 33 263 97 657 33 413 z "},"p":{"ha":569,"x_min":0,"x_max":0,"o":"m 99 693 b 79 146 85 547 79 351 b 86 -324 79 -10 82 -174 l 249 -340 b 239 -6 243 -233 240 -121 b 335 -19 267 -15 299 -19 b 550 406 436 -19 550 186 b 382 647 550 549 483 647 b 239 563 326 647 272 614 l 243 678 z m 240 371 b 342 511 268 447 297 511 b 388 371 365 511 388 444 b 281 119 388 238 332 119 b 239 149 264 119 250 133 b 240 371 239 221 239 299 z "},"q":{"ha":558,"x_min":0,"x_max":0,"o":"m 424 624 b 408 556 419 596 414 575 b 249 660 363 619 310 660 b 39 240 118 660 39 456 b 229 -19 39 85 125 -19 b 331 21 267 -19 300 -3 b 339 -317 331 -101 333 -225 l 501 -332 b 493 19 496 -233 493 -110 b 518 614 493 249 501 493 z m 250 110 b 201 274 222 110 201 175 b 283 518 201 361 235 518 b 344 449 308 518 335 490 b 333 225 340 383 336 308 b 250 110 318 179 285 110 z "},"r":{"ha":418,"x_min":0,"x_max":0,"o":"m 424 614 b 324 664 400 642 364 664 b 186 518 278 664 228 607 b 164 589 178 539 171 561 l 60 600 b 85 207 79 494 85 354 b 81 -18 85 117 82 50 l 242 -32 b 247 207 246 51 247 129 b 244 354 247 257 246 306 b 332 501 261 440 289 501 b 388 486 354 501 374 496 z "},"s":{"ha":482,"x_min":0,"x_max":0,"o":"m 325 385 l 451 374 b 460 454 457 403 460 429 b 288 657 460 579 393 657 b 68 432 185 657 68 556 b 214 225 68 317 140 265 b 278 143 250 204 278 174 b 226 99 278 114 251 99 b 110 194 182 99 139 144 l 35 110 b 260 -29 79 36 160 -29 b 454 153 353 -29 454 32 b 300 342 454 253 357 310 b 232 453 244 378 232 399 b 288 521 232 492 260 521 b 329 438 307 521 329 500 b 325 385 329 424 328 406 z "},"t":{"ha":399,"x_min":0,"x_max":0,"o":"m 50 429 b 129 436 74 432 101 436 b 125 -4 126 304 125 161 l 289 -19 b 293 447 289 160 289 308 b 396 449 329 449 364 449 l 396 581 b 297 579 365 581 332 581 b 310 846 300 668 304 756 l 144 861 b 133 561 140 763 136 664 b 29 543 96 556 60 550 z "},"u":{"ha":583,"x_min":0,"x_max":0,"o":"m 364 665 b 360 432 363 594 360 511 b 361 339 360 401 360 369 b 263 144 336 228 290 144 b 218 215 232 144 218 172 b 243 610 218 371 229 478 l 82 625 b 56 194 67 481 56 360 b 229 -4 56 69 121 -4 b 378 108 279 -4 331 39 b 396 -10 388 65 393 25 l 533 -24 b 522 432 525 86 522 264 b 525 651 522 511 525 581 z "},"v":{"ha":508,"x_min":0,"x_max":0,"o":"m 331 -22 b 522 682 433 288 479 483 l 372 694 b 251 171 333 504 297 340 b 186 629 221 318 201 461 l 28 643 b 153 -6 44 469 88 258 z "},"w":{"ha":717,"x_min":0,"x_max":0,"o":"m 554 -17 b 739 679 632 238 697 481 l 589 693 b 482 199 554 514 522 358 b 431 607 457 332 442 458 l 324 617 b 224 164 292 454 261 313 b 179 628 203 314 192 457 l 21 643 b 125 -6 35 469 71 257 l 269 -21 b 361 278 307 94 336 189 b 424 -6 379 190 400 96 z "},"x":{"ha":511,"x_min":0,"x_max":0,"o":"m 157 -40 b 249 194 186 51 218 122 b 386 -31 289 110 335 36 l 490 68 b 335 322 414 158 372 235 b 506 632 408 418 475 538 l 386 690 b 265 444 361 614 315 524 b 208 644 242 508 221 581 l 54 660 b 171 317 74 550 115 419 b 10 3 110 214 60 121 z "},"y":{"ha":522,"x_min":0,"x_max":0,"o":"m 399 696 b 271 181 353 538 313 372 b 204 617 236 315 217 458 l 49 632 b 217 -12 68 410 115 181 b 143 -315 192 -107 165 -207 l 296 -329 b 532 618 367 18 449 361 z "},"z":{"ha":478,"x_min":0,"x_max":0,"o":"m 86 -6 b 278 15 179 10 240 15 b 438 7 339 15 394 11 l 456 135 b 278 144 406 140 342 144 l 211 144 b 453 531 276 263 361 403 l 431 658 b 314 663 393 661 353 663 b 76 640 233 663 153 656 l 103 503 b 293 529 161 517 224 524 b 61 138 226 439 153 307 z "},"{":{"ha":694,"x_min":0,"x_max":0,"o":"m 260 340 b 379 511 344 386 379 446 b 356 692 379 571 356 638 b 535 881 356 800 408 860 l 535 1019 b 175 719 315 1010 175 883 b 199 511 175 650 199 574 b 72 401 199 449 175 404 l 93 250 b 199 154 179 247 199 208 b 168 -68 199 88 168 7 b 472 -340 168 -217 286 -331 l 500 -181 b 349 -47 406 -168 349 -122 b 379 168 349 17 379 97 b 260 340 379 233 344 294 z "},"|":{"ha":694,"x_min":0,"x_max":0,"o":"m 390 -340 b 406 292 403 -143 406 83 b 394 1056 406 578 394 814 l 283 1056 b 294 278 283 788 294 536 b 279 -331 294 57 292 -142 z "},"}":{"ha":694,"x_min":0,"x_max":0,"o":"m 319 339 b 200 168 235 293 200 233 b 224 -12 200 108 224 42 b 44 -201 224 -121 171 -181 l 44 -340 b 404 -40 264 -331 404 -204 b 381 168 404 29 381 106 b 507 278 381 231 404 275 l 486 429 b 381 525 400 432 381 471 b 411 747 381 592 411 672 b 107 1019 411 896 293 1010 l 79 860 b 231 726 174 847 231 801 b 200 511 231 663 200 582 b 319 339 200 446 235 385 z "},"~":{"ha":1157,"x_min":0,"x_max":0,"o":"m 274 282 b 386 381 288 333 336 381 b 747 311 501 381 586 311 b 1039 556 904 311 1013 403 l 917 565 b 722 486 874 518 807 486 b 376 544 611 486 518 544 b 118 297 249 544 139 408 z "},"Ä":{"ha":717,"x_min":0,"x_max":0,"o":"m 490 14 l 692 -3 l 510 939 l 253 961 l 4 -46 l 199 -62 l 251 199 l 458 207 z m 368 779 l 436 353 l 281 347 z m 190 1261 b 192 1186 192 1236 192 1214 b 179 1094 192 1154 185 1125 l 311 1081 b 331 1171 326 1104 331 1139 b 315 1250 331 1197 331 1228 z m 406 1264 b 407 1189 407 1239 407 1217 b 394 1097 407 1157 400 1128 l 526 1083 b 546 1174 542 1107 546 1142 b 531 1253 546 1200 546 1231 z "},"Å":{"ha":717,"x_min":0,"x_max":0,"o":"m 490 14 l 692 -3 l 510 939 l 253 961 l 4 -46 l 199 -62 l 251 199 l 458 207 z m 368 779 l 436 353 l 281 347 z m 378 1088 b 324 1147 347 1088 324 1108 b 397 1233 324 1188 350 1233 b 451 1175 428 1233 451 1214 b 378 1088 451 1135 425 1088 z m 375 1011 b 549 1178 483 1011 549 1099 b 400 1310 549 1257 485 1310 b 226 1143 293 1310 226 1224 b 375 1011 226 1065 290 1011 z "},"Ç":{"ha":669,"x_min":0,"x_max":0,"o":"m 626 533 b 386 976 622 728 610 976 b 36 360 133 976 36 600 b 296 -37 36 157 122 -10 b 272 -179 281 -81 274 -124 l 311 -183 b 350 -174 325 -176 338 -174 b 399 -212 378 -174 399 -190 b 340 -251 399 -239 369 -251 b 181 -200 292 -251 222 -222 l 156 -262 b 343 -322 207 -301 275 -322 b 518 -193 453 -322 518 -279 b 400 -86 518 -125 458 -86 b 368 -90 389 -86 379 -87 b 357 -42 361 -71 358 -56 b 656 310 531 -36 611 101 l 479 324 b 349 136 454 233 425 136 b 221 374 260 136 221 232 b 374 799 221 511 283 799 b 447 550 444 799 447 650 z "},"É":{"ha":621,"x_min":0,"x_max":0,"o":"m 574 182 b 285 140 494 167 393 149 b 283 381 283 214 283 283 b 563 401 364 389 482 400 l 536 554 b 286 536 446 553 369 549 b 293 775 288 614 290 696 b 585 785 389 782 493 785 l 585 956 b 121 919 468 956 313 949 b 99 346 110 763 99 510 b 104 -6 99 214 101 104 l 318 -25 b 597 29 447 -25 533 0 z m 300 1064 b 568 1165 394 1113 481 1144 l 493 1289 b 238 1143 397 1247 318 1196 z "},"Ñ":{"ha":756,"x_min":0,"x_max":0,"o":"m 238 -42 b 236 614 238 192 238 408 b 529 4 342 425 439 200 l 685 -11 b 696 332 690 81 696 228 b 694 978 696 557 694 778 l 521 993 b 540 332 531 792 536 557 b 293 908 444 504 368 701 l 108 926 b 71 143 89 694 71 411 b 75 -24 71 88 72 33 z m 518 1253 b 446 1208 501 1231 478 1208 b 314 1247 403 1208 368 1247 b 185 1129 250 1247 210 1182 l 268 1085 b 338 1117 285 1101 307 1117 b 469 1092 381 1117 406 1092 b 601 1246 535 1092 596 1174 z "},"Ö":{"ha":724,"x_min":0,"x_max":0,"o":"m 47 431 b 365 -47 47 90 200 -47 b 694 503 528 -47 694 167 b 382 981 694 842 544 981 b 47 431 207 981 47 767 z m 232 431 b 382 815 232 665 304 815 b 510 503 449 815 510 725 b 365 117 510 267 436 117 b 232 431 296 117 232 208 z m 196 1261 b 197 1186 197 1236 197 1214 b 185 1094 197 1154 190 1125 l 317 1081 b 336 1171 332 1104 336 1139 b 321 1250 336 1197 336 1228 z m 411 1264 b 413 1189 413 1239 413 1217 b 400 1097 413 1157 406 1128 l 532 1083 b 551 1174 547 1107 551 1142 b 536 1253 551 1200 551 1231 z "},"Ü":{"ha":749,"x_min":0,"x_max":0,"o":"m 107 951 b 75 326 86 735 75 549 b 378 -24 75 158 196 -24 b 690 506 654 -24 690 340 b 671 957 690 647 681 814 l 482 976 b 500 506 492 822 500 658 b 378 140 500 392 488 140 b 265 326 310 140 265 235 b 296 933 265 544 275 726 z m 221 1261 b 222 1186 222 1236 222 1214 b 210 1094 222 1154 215 1125 l 342 1081 b 361 1171 357 1104 361 1139 b 346 1250 361 1197 361 1228 z m 436 1264 b 438 1189 438 1239 438 1217 b 425 1097 438 1157 431 1128 l 557 1083 b 576 1174 572 1107 576 1142 b 561 1253 576 1200 576 1231 z "},"á":{"ha":542,"x_min":0,"x_max":0,"o":"m 192 397 b 271 518 203 453 233 518 b 324 408 318 518 324 456 l 324 371 b 46 153 183 368 46 282 b 213 -14 46 53 108 -14 b 336 24 257 -14 300 3 l 347 -21 l 464 -31 b 481 389 474 118 481 263 b 288 669 481 535 435 669 b 64 410 164 669 89 539 z m 317 125 b 240 108 286 113 261 108 b 188 153 208 108 188 125 b 319 242 188 186 224 233 z m 269 715 b 538 817 364 764 450 796 l 463 940 b 207 794 367 899 288 847 z "},"à":{"ha":542,"x_min":0,"x_max":0,"o":"m 192 397 b 271 518 203 453 233 518 b 324 408 318 518 324 456 l 324 371 b 46 153 183 368 46 282 b 213 -14 46 53 108 -14 b 336 24 257 -14 300 3 l 347 -21 l 464 -31 b 481 389 474 118 481 263 b 288 669 481 535 435 669 b 64 410 164 669 89 539 z m 317 125 b 240 108 286 113 261 108 b 188 153 208 108 188 125 b 319 242 188 186 224 233 z m 399 794 b 143 940 318 847 239 899 l 68 817 b 336 715 156 796 242 764 z "},"â":{"ha":542,"x_min":0,"x_max":0,"o":"m 192 397 b 271 518 203 453 233 518 b 324 408 318 518 324 456 l 324 371 b 46 153 183 368 46 282 b 213 -14 46 53 108 -14 b 336 24 257 -14 300 3 l 347 -21 l 464 -31 b 481 389 474 118 481 263 b 288 669 481 535 435 669 b 64 410 164 669 89 539 z m 317 125 b 240 108 286 113 261 108 b 188 153 208 108 188 125 b 319 242 188 186 224 233 z m 260 933 b 82 753 193 875 138 815 l 163 693 b 301 803 210 735 256 771 b 414 706 338 774 374 742 l 494 767 b 354 926 449 822 407 875 z "},"ä":{"ha":542,"x_min":0,"x_max":0,"o":"m 192 397 b 271 518 203 453 233 518 b 324 408 318 518 324 456 l 324 371 b 46 153 183 368 46 282 b 213 -14 46 53 108 -14 b 336 24 257 -14 300 3 l 347 -21 l 464 -31 b 481 389 474 118 481 263 b 288 669 481 535 435 669 b 64 410 164 669 89 539 z m 317 125 b 240 108 286 113 261 108 b 188 153 208 108 188 125 b 319 242 188 186 224 233 z m 121 913 b 122 838 122 888 122 865 b 110 746 122 806 115 776 l 242 732 b 261 822 257 756 261 790 b 246 901 261 849 261 879 z m 336 915 b 338 840 338 890 338 868 b 325 749 338 808 331 779 l 457 735 b 476 825 472 758 476 793 b 461 904 476 851 476 882 z "},"ã":{"ha":542,"x_min":0,"x_max":0,"o":"m 192 397 b 271 518 203 453 233 518 b 324 408 318 518 324 456 l 324 371 b 46 153 183 368 46 282 b 213 -14 46 53 108 -14 b 336 24 257 -14 300 3 l 347 -21 l 464 -31 b 481 389 474 118 481 263 b 288 669 481 535 435 669 b 64 410 164 669 89 539 z m 317 125 b 240 108 286 113 261 108 b 188 153 208 108 188 125 b 319 242 188 186 224 233 z m 429 904 b 357 860 413 882 389 860 b 225 899 314 860 279 899 b 96 781 161 899 121 833 l 179 736 b 249 768 196 753 218 768 b 381 743 292 768 317 743 b 513 897 446 743 507 825 z "},"å":{"ha":543,"x_min":0,"x_max":0,"o":"m 192 397 b 271 518 203 453 233 518 b 324 408 318 518 324 456 l 324 371 b 46 153 183 368 46 282 b 213 -14 46 53 108 -14 b 336 24 257 -14 300 3 l 347 -21 l 464 -31 b 481 389 474 118 481 263 b 288 669 481 535 435 669 b 64 410 164 669 89 539 z m 317 125 b 240 108 286 113 261 108 b 188 153 208 108 188 125 b 319 242 188 186 224 233 z m 289 786 b 235 846 258 786 235 807 b 308 932 235 886 261 932 b 363 874 339 932 363 913 b 289 786 363 833 336 786 z m 286 710 b 460 876 394 710 460 797 b 311 1008 460 956 396 1008 b 138 842 204 1008 138 922 b 286 710 138 764 201 710 z "},"ç":{"ha":492,"x_min":0,"x_max":0,"o":"m 454 343 b 467 413 463 363 467 386 b 281 663 467 526 401 663 b 44 224 89 663 44 367 b 214 -25 44 67 125 -7 b 185 -179 194 -72 186 -118 l 224 -183 b 263 -174 238 -176 250 -174 b 311 -212 290 -174 311 -190 b 253 -251 311 -239 282 -251 b 93 -200 204 -251 135 -222 l 68 -262 b 256 -322 119 -301 188 -322 b 431 -193 365 -322 431 -279 b 313 -86 431 -125 371 -86 b 281 -90 301 -86 292 -87 b 269 -29 272 -65 269 -49 b 479 192 363 -22 433 67 l 376 265 b 258 119 332 181 290 119 b 207 224 233 119 207 149 b 281 500 207 315 221 500 b 325 400 307 500 325 446 b 322 356 325 385 324 365 z "},"é":{"ha":510,"x_min":0,"x_max":0,"o":"m 488 278 b 286 663 486 383 489 663 b 35 246 93 663 35 413 b 242 -29 35 71 131 -29 b 474 139 369 -29 433 67 l 368 201 b 256 100 342 157 303 100 b 200 222 229 100 206 146 b 488 278 290 235 418 258 z m 286 526 b 331 353 318 526 331 440 b 203 324 289 342 244 332 b 286 526 208 426 243 526 z m 257 715 b 525 817 351 764 438 796 l 450 940 b 194 794 354 899 275 847 z "},"è":{"ha":510,"x_min":0,"x_max":0,"o":"m 488 278 b 286 663 486 383 489 663 b 35 246 93 663 35 413 b 242 -29 35 71 131 -29 b 474 139 369 -29 433 67 l 368 201 b 256 100 342 157 303 100 b 200 222 229 100 206 146 b 488 278 290 235 418 258 z m 286 526 b 331 353 318 526 331 440 b 203 324 289 342 244 332 b 286 526 208 426 243 526 z m 386 794 b 131 940 306 847 226 899 l 56 817 b 324 715 143 796 229 764 z "},"ê":{"ha":510,"x_min":0,"x_max":0,"o":"m 488 278 b 286 663 486 383 489 663 b 35 246 93 663 35 413 b 242 -29 35 71 131 -29 b 474 139 369 -29 433 67 l 368 201 b 256 100 342 157 303 100 b 200 222 229 100 206 146 b 488 278 290 235 418 258 z m 286 526 b 331 353 318 526 331 440 b 203 324 289 342 244 332 b 286 526 208 426 243 526 z m 247 933 b 69 753 181 875 125 815 l 150 693 b 289 803 197 735 243 771 b 401 706 325 774 361 742 l 482 767 b 342 926 436 822 394 875 z "},"ë":{"ha":510,"x_min":0,"x_max":0,"o":"m 488 278 b 286 663 486 383 489 663 b 35 246 93 663 35 413 b 242 -29 35 71 131 -29 b 474 139 369 -29 433 67 l 368 201 b 256 100 342 157 303 100 b 200 222 229 100 206 146 b 488 278 290 235 418 258 z m 286 526 b 331 353 318 526 331 440 b 203 324 289 342 244 332 b 286 526 208 426 243 526 z m 108 913 b 110 838 110 888 110 865 b 97 746 110 806 103 776 l 229 732 b 249 822 244 756 249 790 b 233 901 249 849 249 879 z m 324 915 b 325 840 325 890 325 868 b 313 749 325 808 318 779 l 444 735 b 464 825 460 758 464 793 b 449 904 464 851 464 882 z "},"í":{"ha":328,"x_min":0,"x_max":0,"o":"m 96 663 l 96 -4 l 254 -19 l 254 647 z m 149 715 b 417 817 243 764 329 796 l 342 940 b 86 794 246 899 167 847 z "},"ì":{"ha":328,"x_min":0,"x_max":0,"o":"m 96 663 l 96 -4 l 254 -19 l 254 647 z m 278 794 b 22 940 197 847 118 899 l -53 817 b 215 715 35 796 121 764 z "},"î":{"ha":328,"x_min":0,"x_max":0,"o":"m 96 663 l 96 -4 l 254 -19 l 254 647 z m 139 933 b -39 753 72 875 17 815 l 42 693 b 181 803 89 735 135 771 b 293 706 217 774 253 742 l 374 767 b 233 926 328 822 286 875 z "},"ï":{"ha":328,"x_min":0,"x_max":0,"o":"m 96 663 l 96 -4 l 254 -19 l 254 647 z m 0 913 b 1 838 1 888 1 865 b -11 746 1 806 -6 776 l 121 732 b 140 822 136 756 140 790 b 125 901 140 849 140 879 z m 215 915 b 217 840 217 890 217 868 b 204 749 217 808 210 779 l 336 735 b 356 825 351 758 356 793 b 340 904 356 851 356 882 z "},"ñ":{"ha":589,"x_min":0,"x_max":0,"o":"m 71 601 b 63 367 65 522 63 446 b 78 -10 63 242 68 115 l 240 -25 b 229 181 236 46 232 114 b 329 511 240 328 301 511 b 375 329 365 511 375 415 b 360 29 375 236 371 144 l 522 14 b 540 356 535 139 540 256 b 357 661 540 497 513 661 b 194 500 296 661 240 592 b 174 590 188 529 179 560 z m 432 904 b 360 860 415 882 392 860 b 228 899 317 860 282 899 b 99 781 164 899 124 833 l 182 736 b 251 768 199 753 221 768 b 383 743 294 768 319 743 b 515 897 449 743 510 825 z "},"ó":{"ha":511,"x_min":0,"x_max":0,"o":"m 196 250 b 279 528 196 344 224 528 b 338 364 325 528 338 435 b 265 93 338 249 308 93 b 196 250 231 93 196 124 z m 33 263 b 265 -36 33 24 146 -36 b 500 350 425 -36 500 169 b 279 657 500 482 451 657 b 33 263 97 657 33 413 z m 242 715 b 510 817 336 764 422 796 l 435 940 b 179 794 339 899 260 847 z "},"ò":{"ha":511,"x_min":0,"x_max":0,"o":"m 196 250 b 279 528 196 344 224 528 b 338 364 325 528 338 435 b 265 93 338 249 308 93 b 196 250 231 93 196 124 z m 33 263 b 265 -36 33 24 146 -36 b 500 350 425 -36 500 169 b 279 657 500 482 451 657 b 33 263 97 657 33 413 z m 371 794 b 115 940 290 847 211 899 l 40 817 b 308 715 128 796 214 764 z "},"ô":{"ha":511,"x_min":0,"x_max":0,"o":"m 196 250 b 279 528 196 344 224 528 b 338 364 325 528 338 435 b 265 93 338 249 308 93 b 196 250 231 93 196 124 z m 33 263 b 265 -36 33 24 146 -36 b 500 350 425 -36 500 169 b 279 657 500 482 451 657 b 33 263 97 657 33 413 z m 256 933 b 78 753 189 875 133 815 l 158 693 b 297 803 206 735 251 771 b 410 706 333 774 369 742 l 490 767 b 350 926 444 822 403 875 z "},"ö":{"ha":511,"x_min":0,"x_max":0,"o":"m 196 250 b 279 528 196 344 224 528 b 338 364 325 528 338 435 b 265 93 338 249 308 93 b 196 250 231 93 196 124 z m 33 263 b 265 -36 33 24 146 -36 b 500 350 425 -36 500 169 b 279 657 500 482 451 657 b 33 263 97 657 33 413 z m 93 913 b 94 838 94 888 94 865 b 82 746 94 806 88 776 l 214 732 b 233 822 229 756 233 790 b 218 901 233 849 233 879 z m 308 915 b 310 840 310 890 310 868 b 297 749 310 808 303 779 l 429 735 b 449 825 444 758 449 793 b 433 904 449 851 449 882 z "},"õ":{"ha":511,"x_min":0,"x_max":0,"o":"m 196 250 b 279 528 196 344 224 528 b 338 364 325 528 338 435 b 265 93 338 249 308 93 b 196 250 231 93 196 124 z m 33 263 b 265 -36 33 24 146 -36 b 500 350 425 -36 500 169 b 279 657 500 482 451 657 b 33 263 97 657 33 413 z m 401 904 b 329 860 385 882 361 860 b 197 899 286 860 251 899 b 68 781 133 899 93 833 l 151 736 b 221 768 168 753 190 768 b 353 743 264 768 289 743 b 485 897 418 743 479 825 z "},"ú":{"ha":583,"x_min":0,"x_max":0,"o":"m 364 665 b 360 432 363 594 360 511 b 361 339 360 401 360 369 b 263 144 336 228 290 144 b 218 215 232 144 218 172 b 243 610 218 371 229 478 l 82 625 b 56 194 67 481 56 360 b 229 -4 56 69 121 -4 b 378 108 279 -4 331 39 b 396 -10 388 65 393 25 l 533 -24 b 522 432 525 86 522 264 b 525 651 522 511 525 581 z m 269 715 b 538 817 364 764 450 796 l 463 940 b 207 794 367 899 288 847 z "},"ù":{"ha":583,"x_min":0,"x_max":0,"o":"m 364 665 b 360 432 363 594 360 511 b 361 339 360 401 360 369 b 263 144 336 228 290 144 b 218 215 232 144 218 172 b 243 610 218 371 229 478 l 82 625 b 56 194 67 481 56 360 b 229 -4 56 69 121 -4 b 378 108 279 -4 331 39 b 396 -10 388 65 393 25 l 533 -24 b 522 432 525 86 522 264 b 525 651 522 511 525 581 z m 399 794 b 143 940 318 847 239 899 l 68 817 b 336 715 156 796 242 764 z "},"û":{"ha":583,"x_min":0,"x_max":0,"o":"m 364 665 b 360 432 363 594 360 511 b 361 339 360 401 360 369 b 263 144 336 228 290 144 b 218 215 232 144 218 172 b 243 610 218 371 229 478 l 82 625 b 56 194 67 481 56 360 b 229 -4 56 69 121 -4 b 378 108 279 -4 331 39 b 396 -10 388 65 393 25 l 533 -24 b 522 432 525 86 522 264 b 525 651 522 511 525 581 z m 260 933 b 82 753 193 875 138 815 l 163 693 b 301 803 210 735 256 771 b 414 706 338 774 374 742 l 494 767 b 354 926 449 822 407 875 z "},"ü":{"ha":583,"x_min":0,"x_max":0,"o":"m 364 665 b 360 432 363 594 360 511 b 361 339 360 401 360 369 b 263 144 336 228 290 144 b 218 215 232 144 218 172 b 243 610 218 371 229 478 l 82 625 b 56 194 67 481 56 360 b 229 -4 56 69 121 -4 b 378 108 279 -4 331 39 b 396 -10 388 65 393 25 l 533 -24 b 522 432 525 86 522 264 b 525 651 522 511 525 581 z m 121 913 b 122 838 122 888 122 865 b 110 746 122 806 115 776 l 242 732 b 261 822 257 756 261 790 b 246 901 261 849 261 879 z m 336 915 b 338 840 338 890 338 868 b 325 749 338 808 331 779 l 457 735 b 476 825 472 758 476 793 b 461 904 476 851 476 882 z "},"†":{"ha":722,"x_min":0,"x_max":0,"o":"m 649 681 b 442 690 582 686 517 689 b 456 969 443 788 447 881 l 261 988 b 246 689 253 896 249 794 b 53 679 182 686 117 679 l 69 529 b 244 539 126 529 186 535 l 244 449 b 263 -165 244 240 247 32 l 454 -183 b 439 449 439 22 439 232 l 439 540 b 654 531 511 539 588 536 z "},"°":{"ha":457,"x_min":0,"x_max":0,"o":"m 215 676 b 132 761 167 676 132 706 b 242 889 132 821 169 889 b 325 808 290 889 325 861 b 215 676 325 749 286 676 z m 211 571 b 440 807 354 571 440 696 b 246 994 440 919 357 994 b 17 758 104 994 17 872 b 211 571 17 647 100 571 z "},"¢":{"ha":672,"x_min":0,"x_max":0,"o":"m 553 479 b 565 549 565 499 565 522 b 442 782 565 639 522 743 b 436 936 439 839 436 860 l 297 947 b 301 783 297 867 299 839 b 136 360 169 721 136 483 b 279 118 136 218 201 144 b 265 -24 278 69 275 43 l 404 -36 b 419 122 415 36 418 67 b 571 328 485 154 535 231 l 468 401 b 350 256 424 317 382 256 b 299 360 325 256 299 285 b 372 636 299 451 313 636 b 424 536 403 636 424 582 b 421 492 424 521 422 501 z "},"£":{"ha":672,"x_min":0,"x_max":0,"o":"m 63 308 b 178 321 97 314 138 318 b 24 111 154 214 113 161 l 88 -29 b 676 18 275 8 486 17 l 663 171 b 256 140 521 169 401 160 b 342 329 296 190 324 251 b 575 332 424 332 506 332 l 556 464 b 363 457 488 464 424 461 l 365 476 b 456 756 392 722 429 756 b 504 647 492 756 504 708 b 499 578 504 625 501 599 l 635 564 b 643 647 640 596 643 618 b 463 908 643 792 579 908 b 199 490 361 908 226 847 l 194 440 b 32 417 139 433 85 425 z "},"§":{"ha":722,"x_min":0,"x_max":0,"o":"m 51 417 b 297 122 51 282 171 192 b 428 -19 388 72 428 31 b 333 -104 428 -78 381 -104 b 156 67 265 -104 193 3 l 21 1 b 333 -267 68 -99 171 -267 b 617 15 476 -267 617 -176 b 561 147 617 64 597 108 b 631 346 603 194 631 261 b 367 640 631 475 535 563 b 256 747 304 669 256 707 b 353 865 256 822 306 865 b 438 764 401 865 438 815 b 419 674 438 732 431 706 l 592 617 b 628 764 618 661 628 706 b 353 1028 628 858 519 1028 b 65 747 214 1028 65 929 b 122 604 65 694 86 646 b 51 417 79 558 51 494 z m 367 282 b 228 417 289 315 228 365 b 244 504 228 450 235 479 b 297 481 261 494 279 488 b 456 339 410 438 456 389 b 426 253 456 301 444 274 b 367 282 408 263 388 272 z "},"•":{"ha":819,"x_min":0,"x_max":0,"o":"m 253 699 b 254 557 254 653 254 604 b 239 361 254 486 246 424 l 554 332 b 582 543 571 404 582 479 b 558 672 582 596 575 642 z "},"¶":{"ha":694,"x_min":0,"x_max":0,"o":"m 689 1006 b 410 1019 603 1014 506 1019 b 18 724 199 1019 18 956 b 189 538 18 625 86 538 b 271 546 219 538 247 539 b 272 410 272 503 272 460 b 257 -4 272 265 269 126 l 368 -14 b 383 424 381 125 383 274 b 372 903 383 611 375 747 b 478 907 407 906 442 906 b 489 444 481 746 489 615 b 474 3 489 290 486 142 l 585 -7 b 600 458 597 140 600 300 b 590 906 600 632 593 764 b 669 900 615 904 646 904 z "},"ß":{"ha":660,"x_min":0,"x_max":0,"o":"m 21 542 l 50 417 b 100 426 64 421 82 422 b 107 142 101 321 104 238 b 115 -7 108 97 113 50 l 271 -24 b 263 147 271 39 264 97 b 254 618 256 304 254 461 b 331 868 254 776 285 868 b 414 706 382 868 414 804 b 311 460 414 626 311 572 b 422 253 311 344 375 293 b 458 171 444 233 458 201 b 421 113 458 132 436 113 b 374 125 406 113 385 118 l 313 26 b 454 -29 340 -6 389 -29 b 621 181 533 -29 621 40 b 508 383 621 288 539 350 b 468 481 483 410 468 433 b 564 713 468 519 564 604 b 331 1021 564 900 479 1021 b 99 618 193 1021 99 871 l 99 557 b 21 542 68 551 42 547 z "},"®":{"ha":1036,"x_min":0,"x_max":0,"o":"m 967 531 b 529 1008 967 869 758 1008 b 69 458 288 1008 69 796 b 513 -19 69 117 281 -19 b 967 531 792 -19 967 250 z m 513 100 b 219 454 358 100 219 204 b 531 888 219 721 367 888 b 817 535 681 888 817 788 b 513 100 817 304 711 100 z m 475 215 b 482 417 478 282 481 351 b 633 199 539 336 593 263 l 736 269 b 603 454 694 332 649 396 b 735 633 674 500 735 561 b 544 801 735 744 644 801 b 335 761 478 801 400 788 b 336 621 336 714 336 668 b 325 228 336 490 331 358 z m 483 668 b 544 682 506 678 526 682 b 597 638 572 682 597 668 b 485 497 597 597 547 535 b 483 668 485 554 483 611 z "},"©":{"ha":1036,"x_min":0,"x_max":0,"o":"m 967 531 b 529 1008 967 869 758 1008 b 69 458 288 1008 69 796 b 513 -19 69 117 281 -19 b 967 531 792 -19 967 250 z m 513 100 b 219 454 358 100 219 204 b 531 888 219 721 367 888 b 817 535 681 888 817 788 b 513 100 817 304 711 100 z m 704 539 b 535 801 701 654 692 801 b 299 436 365 801 299 579 b 513 199 299 306 369 199 b 721 404 635 199 692 279 l 575 415 b 513 318 564 368 549 318 b 450 444 469 318 450 369 b 526 682 450 522 482 682 b 557 553 556 682 557 607 z "},"™":{"ha":997,"x_min":0,"x_max":0,"o":"m 324 594 b 321 785 321 656 321 719 b 324 900 321 825 321 858 b 392 906 361 906 392 906 l 381 994 b 258 989 381 994 321 993 b 131 975 193 985 131 975 l 143 883 b 208 894 143 883 172 889 b 207 785 207 842 207 822 b 211 600 207 722 208 658 z m 764 860 b 753 594 763 772 761 679 l 863 585 b 867 778 867 644 867 713 b 864 971 867 847 864 908 l 689 985 b 654 794 679 918 669 858 b 636 960 649 857 643 910 l 463 971 b 454 794 456 908 454 851 b 457 600 454 733 456 672 l 565 592 b 553 868 565 692 553 775 l 558 867 b 594 638 572 781 579 722 l 714 628 b 758 860 733 719 744 790 z "},"´":{"ha":694,"x_min":0,"x_max":0,"o":"m 319 715 b 588 817 414 764 500 796 l 513 940 b 257 794 417 899 338 847 z "},"¨":{"ha":694,"x_min":0,"x_max":0,"o":"m 171 913 b 172 838 172 888 172 865 b 160 746 172 806 165 776 l 292 732 b 311 822 307 756 311 790 b 296 901 311 849 311 879 z m 386 915 b 388 840 388 890 388 868 b 375 749 388 808 381 779 l 507 735 b 526 825 522 758 526 793 b 511 904 526 851 526 882 z "},"≠":{"ha":1157,"x_min":0,"x_max":0,"o":"m 1000 336 b 665 351 896 349 775 351 l 635 351 l 714 489 b 975 474 808 488 893 485 l 1000 640 b 817 653 942 647 879 651 b 915 788 849 700 881 744 l 783 878 b 629 656 731 810 679 733 b 171 644 461 654 315 644 l 171 478 b 528 486 292 478 411 483 l 450 347 b 171 340 353 343 261 340 l 171 174 b 357 176 233 174 296 175 l 283 39 l 415 -33 b 542 183 458 38 500 110 b 679 185 588 185 633 185 b 975 169 788 185 883 182 z "},"Æ":{"ha":926,"x_min":0,"x_max":0,"o":"m 918 182 b 629 140 839 167 738 149 b 628 381 628 214 628 283 b 907 401 708 389 826 400 l 881 554 b 631 536 790 553 714 549 b 638 775 632 614 635 696 b 929 785 733 782 838 785 l 929 956 b 593 936 839 956 726 951 l 322 960 l 4 -46 l 199 -62 l 281 199 l 443 206 b 449 -6 444 132 446 63 l 663 -25 b 942 29 792 -25 878 0 z m 451 779 l 454 749 b 443 353 447 615 443 465 l 319 347 z "},"Ø":{"ha":724,"x_min":0,"x_max":0,"o":"m 47 431 b 85 175 47 328 61 243 l -96 -89 l 11 -129 b 138 72 53 -60 96 7 b 365 -47 197 -10 279 -47 b 694 503 528 -47 694 167 b 654 764 694 608 679 696 b 818 953 708 829 763 892 l 729 1008 b 601 864 686 961 644 914 b 382 981 543 944 464 981 b 47 431 207 981 47 767 z m 511 596 b 515 503 514 568 515 536 b 365 111 515 264 439 111 b 249 240 318 111 274 151 b 511 596 333 365 421 483 z m 226 431 b 382 821 226 668 301 821 b 489 711 424 821 464 786 b 228 364 401 601 315 486 b 226 431 226 385 226 407 z "},"∞":{"ha":1157,"x_min":0,"x_max":0,"o":"m 785 697 b 571 586 693 697 622 644 b 382 676 526 636 468 676 b 104 401 233 676 104 540 b 349 142 104 222 256 142 b 574 271 440 142 518 196 b 775 143 613 200 682 143 b 1040 418 899 143 1040 264 b 785 697 1040 567 939 697 z m 789 531 b 888 422 856 531 888 474 b 785 310 888 363 847 310 b 668 411 732 310 693 363 b 789 531 694 464 728 531 z m 368 510 b 481 428 404 510 458 472 b 349 308 446 367 407 308 b 257 401 319 308 257 339 b 368 510 257 460 304 510 z "},"±":{"ha":1157,"x_min":0,"x_max":0,"o":"m 997 639 b 808 646 939 644 875 646 b 667 643 763 646 715 644 b 686 849 669 715 676 785 l 492 865 b 471 633 482 794 475 715 b 168 615 369 624 268 618 l 176 449 b 469 465 278 453 375 460 b 476 261 469 394 472 332 l 671 249 b 664 476 667 324 664 397 b 808 479 713 478 760 479 b 978 472 864 479 919 478 z m 1000 142 b 665 157 896 154 775 157 b 171 146 482 157 326 146 l 171 -21 b 679 -10 344 -19 513 -10 b 975 -25 788 -10 883 -12 z "},"≤":{"ha":1157,"x_min":0,"x_max":0,"o":"m 1000 140 b 665 156 896 153 775 156 b 171 144 482 156 326 144 l 171 -8 b 679 3 344 -8 513 3 b 975 -12 788 3 883 0 z m 178 458 b 943 214 407 360 650 275 l 979 368 b 397 525 751 411 569 469 b 972 694 628 583 804 635 l 938 868 b 193 610 751 788 496 696 z "},"≥":{"ha":1157,"x_min":0,"x_max":0,"o":"m 1000 140 b 665 156 896 153 775 156 b 171 144 482 156 326 144 l 171 -8 b 679 3 344 -8 513 3 b 975 -12 788 3 883 0 z m 979 603 b 214 847 750 701 507 786 l 178 693 b 760 536 406 650 588 592 b 185 367 529 478 353 426 l 219 193 b 964 451 406 274 661 365 z "},"¥":{"ha":668,"x_min":0,"x_max":0,"o":"m 406 -29 b 400 185 401 43 400 115 b 401 310 400 225 400 268 b 589 311 468 311 532 311 l 583 415 b 432 413 531 415 481 414 l 460 472 b 589 474 504 474 549 474 l 583 578 b 506 576 557 578 531 578 b 636 921 556 694 599 808 l 482 936 b 324 510 442 810 392 667 b 189 854 254 647 214 743 l 22 871 b 138 543 32 793 76 674 l 46 531 l 63 436 b 181 454 99 443 139 450 l 210 399 l 46 382 l 63 288 b 238 304 115 294 174 300 l 238 265 b 250 -10 238 167 238 76 z "},"µ":{"ha":583,"x_min":0,"x_max":0,"o":"m 188 -339 b 201 -1 190 -226 192 -124 b 229 -4 210 -3 219 -4 b 378 108 279 -4 331 39 b 396 -10 388 65 393 25 l 533 -24 b 522 432 525 86 522 264 b 525 651 522 511 525 581 l 364 665 b 360 432 363 594 360 511 b 361 339 360 401 360 369 b 263 144 336 228 290 144 b 218 215 232 144 218 172 b 243 610 218 371 229 478 l 82 625 b 56 194 67 481 56 360 b 74 94 56 156 61 122 b 38 -326 54 -58 43 -174 z "},"∂":{"ha":596,"x_min":0,"x_max":0,"o":"m 304 676 b 42 285 131 676 42 443 b 274 3 42 124 88 3 b 554 422 476 3 554 258 b 247 967 553 693 442 967 b 53 871 179 967 118 926 l 139 760 b 219 800 171 782 199 800 b 354 674 281 800 325 749 b 304 676 339 675 322 676 z m 293 153 b 204 285 222 153 204 208 b 303 526 204 382 244 526 b 392 422 374 526 392 482 b 293 153 392 314 351 153 z "},"∑":{"ha":621,"x_min":0,"x_max":0,"o":"m 574 182 b 306 140 500 167 406 149 b 550 401 393 219 461 296 l 550 557 b 328 775 483 633 410 701 b 585 785 410 782 507 785 l 585 956 b 121 919 468 956 313 949 b 111 768 118 875 114 824 b 404 478 226 667 322 579 b 97 168 311 368 217 268 l 104 -6 l 318 -25 b 597 29 447 -25 533 0 z "},"∏":{"ha":775,"x_min":0,"x_max":0,"o":"m 510 -1 l 700 -19 b 713 451 713 135 713 289 b 701 971 713 640 706 801 l 493 989 b 363 979 456 986 408 983 b 93 944 229 968 93 944 b 67 479 74 768 67 625 b 78 -8 67 326 72 172 l 261 -25 b 256 457 257 149 256 306 b 258 806 256 575 257 689 b 519 833 344 818 429 828 b 524 443 524 710 524 563 b 510 -1 524 285 519 144 z "},"π":{"ha":782,"x_min":0,"x_max":0,"o":"m 39 624 l 69 483 b 164 493 107 486 135 490 b 179 -21 164 319 168 147 l 338 -36 b 319 419 326 114 319 267 b 321 511 319 450 321 481 b 467 525 369 517 418 521 b 471 293 469 449 471 371 b 461 -4 471 194 468 96 l 619 -19 b 638 289 632 85 638 188 b 628 538 638 372 635 456 b 733 539 663 539 699 539 l 707 672 b 378 658 707 672 542 668 b 39 624 210 647 39 624 z "},"∫":{"ha":689,"x_min":0,"x_max":0,"o":"m 453 142 b 400 743 453 374 400 542 b 442 882 400 831 417 882 b 476 824 465 882 476 860 l 592 814 b 435 1031 592 950 538 1031 b 238 743 318 1031 238 928 b 290 142 238 524 290 361 b 249 -25 290 29 274 -25 b 214 39 225 -25 214 1 l 99 49 b 256 -174 99 -86 154 -174 b 453 142 372 -174 453 -58 z "},"ª":{"ha":407,"x_min":0,"x_max":0,"o":"m 156 797 b 197 868 161 829 176 868 b 228 804 225 868 228 832 l 228 779 b 25 625 126 776 25 717 b 157 508 25 556 75 508 b 236 535 185 508 213 519 l 244 503 l 347 497 b 358 792 353 601 358 703 b 208 989 358 893 324 989 b 38 806 115 989 57 897 z m 222 619 b 176 608 204 611 189 608 b 153 632 161 608 153 617 b 225 674 153 647 174 669 z "},"º":{"ha":383,"x_min":0,"x_max":0,"o":"m 158 700 b 203 869 158 758 174 869 b 231 781 225 869 231 819 b 193 617 231 711 215 617 b 158 700 176 617 158 633 z m 22 710 b 193 499 22 540 104 499 b 367 771 311 499 367 643 b 203 989 367 864 331 989 b 22 710 69 989 22 815 z "},"Ω":{"ha":775,"x_min":0,"x_max":0,"o":"m 424 93 b 433 -29 426 50 429 14 l 581 -42 b 736 -14 649 -29 692 -21 l 708 133 b 582 111 669 125 625 117 b 718 531 660 203 718 369 b 406 981 718 850 568 981 b 71 458 231 981 71 778 b 165 126 71 322 108 203 b 50 108 118 118 86 113 l 78 -39 b 321 -6 163 -36 239 -12 b 347 103 328 32 340 64 b 256 458 292 171 256 285 b 406 815 256 676 328 815 b 533 531 472 815 533 733 b 424 93 533 340 489 182 z "},"æ":{"ha":756,"x_min":0,"x_max":0,"o":"m 288 669 b 64 410 164 669 89 539 l 192 397 b 271 518 203 453 233 518 b 324 408 318 518 324 456 l 324 371 b 46 153 183 368 46 282 b 213 -14 46 53 108 -14 b 379 33 286 -14 340 3 b 510 -29 414 -7 460 -29 b 742 139 638 -29 701 67 l 636 201 b 524 100 610 157 571 100 b 468 222 497 100 474 146 b 756 278 558 235 686 258 b 554 663 754 383 757 663 b 418 607 497 663 453 642 b 288 669 388 646 346 669 z m 554 526 b 599 353 586 526 599 440 b 471 324 557 342 513 332 b 554 526 476 426 511 526 z m 317 125 b 240 108 286 113 261 108 b 188 153 208 108 188 125 b 319 242 188 186 224 233 z "},"ø":{"ha":511,"x_min":0,"x_max":0,"o":"m 33 263 b 64 86 33 188 44 129 l -32 -64 l 32 -99 l 107 21 b 265 -36 150 -21 207 -36 b 500 350 425 -36 500 169 b 463 536 500 410 490 479 b 579 676 500 585 539 631 l 524 724 b 421 599 489 683 454 642 b 279 657 388 635 340 657 b 33 263 97 657 33 413 z m 343 374 b 265 88 343 246 311 88 b 199 160 238 88 211 103 b 343 374 247 235 294 304 z m 190 264 b 279 533 193 363 222 533 b 332 467 306 533 322 504 b 190 264 283 401 238 335 z "},"¿":{"ha":582,"x_min":0,"x_max":0,"o":"m 468 272 b 263 135 386 192 313 135 b 200 196 221 135 200 165 b 340 397 200 253 272 319 b 456 593 410 476 456 535 b 411 668 456 629 438 650 l 293 682 b 300 639 297 668 300 654 b 238 519 300 610 288 572 b 33 210 133 408 33 318 b 263 -32 33 78 114 -32 b 596 161 376 -32 489 47 z m 444 738 b 442 793 443 757 442 776 b 456 940 442 847 442 889 l 290 972 b 268 843 276 940 268 889 b 283 754 268 810 268 782 z "},"¡":{"ha":386,"x_min":0,"x_max":0,"o":"m 146 725 b 53 7 132 464 108 224 l 256 -32 b 282 344 272 92 282 217 b 257 711 282 463 272 585 z m 286 781 b 283 836 285 800 283 819 b 297 983 283 890 283 932 l 132 1015 b 110 886 118 983 110 932 b 125 797 110 853 110 825 z "},"¬":{"ha":1157,"x_min":0,"x_max":0,"o":"m 972 583 b 665 599 876 596 767 599 b 171 588 482 599 326 588 l 171 435 b 679 446 344 435 513 446 b 817 443 728 446 772 444 l 817 351 b 806 254 817 317 813 286 l 972 240 b 986 393 982 275 986 336 b 972 583 986 422 986 494 z "},"√":{"ha":811,"x_min":0,"x_max":0,"o":"m 354 -22 b 588 878 469 351 535 624 b 746 888 639 883 690 888 l 719 1021 b 461 1004 647 1021 540 1014 b 275 171 401 694 349 431 b 210 629 244 318 225 461 l 51 643 b 176 -6 68 469 111 258 z "},"ƒ":{"ha":676,"x_min":0,"x_max":0,"o":"m 57 250 b 163 274 88 260 122 267 b 136 -7 153 175 147 88 b 54 -181 122 -126 100 -181 b -19 -150 35 -181 11 -169 l -82 -257 b 72 -340 -40 -311 7 -340 b 299 -51 168 -340 271 -249 b 335 296 315 68 325 182 b 489 303 389 303 446 303 l 503 432 b 347 426 458 432 403 431 l 357 507 b 449 743 375 658 424 743 b 479 661 468 743 479 706 b 469 588 479 638 476 611 l 606 575 b 628 717 621 628 628 675 b 476 919 628 844 564 919 b 189 507 350 919 224 768 l 175 404 b 56 375 133 396 89 386 z "},"≈":{"ha":1157,"x_min":0,"x_max":0,"o":"m 274 426 b 386 525 288 478 336 525 b 747 456 501 525 586 456 b 1039 700 904 456 1013 547 l 917 710 b 722 631 874 663 807 631 b 376 689 611 631 518 689 b 118 442 249 689 139 553 z m 274 132 b 386 231 288 183 336 231 b 747 161 501 231 586 161 b 1039 406 904 161 1013 253 l 917 415 b 722 336 874 368 807 336 b 376 394 611 336 518 394 b 118 147 249 394 139 258 z "},"∆":{"ha":904,"x_min":0,"x_max":0,"o":"m 610 939 l 353 961 l 49 -46 l 240 -62 l 856 -33 z m 468 779 l 625 114 l 282 100 z "},"«":{"ha":664,"x_min":0,"x_max":0,"o":"m 201 590 b 39 308 164 501 101 396 b 221 6 94 186 156 81 l 354 63 b 217 303 304 126 256 214 b 347 556 269 386 313 468 z m 479 590 b 317 308 442 501 379 396 b 499 6 372 186 433 81 l 632 63 b 494 303 582 126 533 214 b 625 556 547 386 590 468 z "},"»":{"ha":664,"x_min":0,"x_max":0,"o":"m 178 6 b 340 288 215 94 278 200 b 158 590 285 410 224 515 l 25 533 b 163 293 75 469 124 382 b 32 40 110 210 67 128 z m 451 6 b 614 288 489 94 551 200 b 432 590 558 410 497 515 l 299 533 b 436 293 349 469 397 382 b 306 40 383 210 340 128 z "},"…":{"ha":1292,"x_min":0,"x_max":0,"o":"m 132 238 b 133 133 133 204 133 168 b 121 -14 133 82 126 33 l 308 -29 b 328 118 324 10 328 64 b 313 221 328 154 322 190 z m 553 238 b 554 133 554 204 554 168 b 542 -14 554 82 547 33 l 729 -29 b 749 118 744 10 749 64 b 733 221 749 154 743 190 z m 975 238 b 976 133 976 204 976 168 b 964 -14 976 82 969 33 l 1151 -29 b 1171 118 1167 10 1171 64 b 1156 221 1171 154 1165 190 z "}," ":{"ha":672,"x_min":0,"x_max":0,"o":""},"À":{"ha":717,"x_min":0,"x_max":0,"o":"m 490 14 l 692 -3 l 510 939 l 253 961 l 4 -46 l 199 -62 l 251 199 l 458 207 z m 368 779 l 436 353 l 281 347 z m 468 1143 b 213 1289 388 1196 308 1247 l 138 1165 b 406 1064 225 1144 311 1113 z "},"Ã":{"ha":717,"x_min":0,"x_max":0,"o":"m 490 14 l 692 -3 l 510 939 l 253 961 l 4 -46 l 199 -62 l 251 199 l 458 207 z m 368 779 l 436 353 l 281 347 z m 499 1253 b 426 1208 482 1231 458 1208 b 294 1247 383 1208 349 1247 b 165 1129 231 1247 190 1182 l 249 1085 b 318 1117 265 1101 288 1117 b 450 1092 361 1117 386 1092 b 582 1246 515 1092 576 1174 z "},"Õ":{"ha":724,"x_min":0,"x_max":0,"o":"m 47 431 b 365 -47 47 90 200 -47 b 694 503 528 -47 694 167 b 382 981 694 842 544 981 b 47 431 207 981 47 767 z m 232 431 b 382 815 232 665 304 815 b 510 503 449 815 510 725 b 365 117 510 267 436 117 b 232 431 296 117 232 208 z m 504 1253 b 432 1208 488 1231 464 1208 b 300 1247 389 1208 354 1247 b 171 1129 236 1247 196 1182 l 254 1085 b 324 1117 271 1101 293 1117 b 456 1092 367 1117 392 1092 b 588 1246 521 1092 582 1174 z "},"Œ":{"ha":979,"x_min":0,"x_max":0,"o":"m 988 182 b 685 140 904 167 799 149 b 683 381 683 214 683 283 b 976 401 768 389 892 400 l 950 554 b 686 536 854 553 774 549 b 693 775 688 614 690 696 b 999 785 793 782 903 785 l 999 956 b 549 921 885 956 733 949 b 382 981 500 961 442 981 b 47 431 207 981 47 767 b 365 -47 47 90 200 -47 b 517 14 417 -47 469 -25 b 518 -6 517 7 518 1 l 732 -25 b 1011 29 861 -25 947 0 z m 232 431 b 382 815 232 665 304 815 b 510 503 449 815 510 725 b 365 117 510 267 436 117 b 232 431 296 117 232 208 z "},"œ":{"ha":776,"x_min":0,"x_max":0,"o":"m 279 657 b 33 263 97 657 33 413 b 265 -36 33 24 146 -36 b 394 21 317 -36 360 -14 b 519 -29 429 -11 474 -29 b 751 139 647 -29 711 67 l 646 201 b 533 100 619 157 581 100 b 478 222 507 100 483 146 b 765 278 568 235 696 258 b 564 663 764 383 767 663 b 419 599 503 663 456 638 b 279 657 386 633 340 657 z m 196 250 b 279 528 196 344 224 528 b 338 364 325 528 338 435 b 265 93 338 249 308 93 b 196 250 231 93 196 124 z m 564 526 b 608 353 596 526 608 440 b 481 324 567 342 522 332 b 564 526 486 426 521 526 z "},"–":{"ha":694,"x_min":0,"x_max":0,"o":"m 696 368 b 361 383 592 381 471 383 b 0 372 231 383 117 372 l 0 261 b 375 272 132 261 247 272 b 671 257 483 272 579 269 z "},"—":{"ha":1389,"x_min":0,"x_max":0,"o":"m 1390 368 b 778 383 1200 381 979 383 b 0 372 497 383 250 372 l 0 261 b 792 272 278 261 522 272 b 1365 257 1003 272 1188 269 z "},"“":{"ha":542,"x_min":0,"x_max":0,"o":"m 118 994 b 44 636 106 856 86 763 l 208 586 b 260 978 235 731 251 832 z m 371 994 b 297 636 358 856 339 763 l 461 586 b 513 978 488 731 504 832 z "},"”":{"ha":542,"x_min":0,"x_max":0,"o":"m 197 600 b 271 958 210 739 229 832 l 107 1008 b 56 617 81 864 64 763 z m 449 600 b 522 958 461 739 481 832 l 358 1008 b 307 617 332 864 315 763 z "},"‘":{"ha":289,"x_min":0,"x_max":0,"o":"m 118 994 b 44 636 106 856 86 763 l 208 586 b 260 978 235 731 251 832 z "},"’":{"ha":289,"x_min":0,"x_max":0,"o":"m 197 600 b 271 958 210 739 229 832 l 107 1008 b 56 617 81 864 64 763 z "},"÷":{"ha":1157,"x_min":0,"x_max":0,"o":"m 1000 489 b 665 504 896 501 775 504 b 171 493 482 504 326 493 l 171 326 b 679 338 344 328 513 338 b 975 322 788 338 883 335 z m 486 249 b 488 142 488 214 488 176 b 476 44 488 107 483 78 l 657 31 b 675 128 671 54 675 93 b 661 233 675 165 669 201 z m 486 800 b 488 693 488 765 488 728 b 476 596 488 658 483 629 l 657 582 b 675 679 671 606 675 644 b 661 785 675 717 669 753 z "},"◊":{"ha":724,"x_min":0,"x_max":0,"o":"m 724 418 l 450 1036 l 304 1058 l 0 392 l 274 -226 l 419 -249 z m 586 425 l 351 -108 l 136 385 l 371 918 z "},"ÿ":{"ha":522,"x_min":0,"x_max":0,"o":"m 399 696 b 271 181 353 538 313 372 b 204 617 236 315 217 458 l 49 632 b 217 -12 68 410 115 181 b 143 -315 192 -107 165 -207 l 296 -329 b 532 618 367 18 449 361 z m 126 913 b 128 838 128 888 128 865 b 115 746 128 806 121 776 l 247 732 b 267 822 263 756 267 790 b 251 901 267 849 267 879 z m 342 915 b 343 840 343 890 343 868 b 331 749 343 808 336 779 l 463 735 b 482 825 478 758 482 793 b 467 904 482 851 482 882 z "},"Ÿ":{"ha":617,"x_min":0,"x_max":0,"o":"m 419 -29 b 414 185 415 43 414 115 b 417 381 414 249 415 318 b 664 976 518 593 597 786 l 503 992 b 324 538 460 857 400 706 b 196 910 257 686 219 790 l 22 926 b 224 372 36 804 124 583 l 224 265 b 236 -10 224 167 228 76 z m 185 1261 b 186 1186 186 1236 186 1214 b 174 1094 186 1154 179 1125 l 306 1081 b 325 1171 321 1104 325 1139 b 310 1250 325 1197 325 1228 z m 400 1264 b 401 1189 401 1239 401 1217 b 389 1097 401 1157 394 1128 l 521 1083 b 540 1174 536 1107 540 1142 b 525 1253 540 1200 540 1231 z "},"⁄":{"ha":758,"x_min":0,"x_max":0,"o":"m 126 -32 b 739 869 324 317 507 611 l 650 925 b 19 8 424 676 219 357 z "},"¤":{"ha":842,"x_min":0,"x_max":0,"o":"m 126 564 b 144 447 126 518 132 481 b 28 322 103 404 65 361 l 132 204 l 250 319 b 404 283 296 294 350 283 b 575 333 475 283 531 303 b 703 200 619 289 663 243 l 821 318 l 675 464 b 704 615 694 513 704 564 b 681 749 704 657 697 704 b 828 868 728 790 776 831 l 728 1003 b 581 881 679 965 629 924 b 432 921 542 906 493 921 b 261 869 361 921 306 901 b 143 1000 221 913 182 956 l 10 914 b 163 743 56 857 108 800 b 126 564 138 686 126 622 z m 289 561 b 432 792 289 649 329 792 b 542 629 515 792 542 699 b 404 413 542 544 501 413 b 289 561 354 413 289 449 z "},"‹":{"ha":385,"x_min":0,"x_max":0,"o":"m 201 590 b 39 308 164 501 101 396 b 221 6 94 186 156 81 l 354 63 b 217 303 304 126 256 214 b 347 556 269 386 313 468 z "},"›":{"ha":385,"x_min":0,"x_max":0,"o":"m 178 6 b 340 288 215 94 278 200 b 158 590 285 410 224 515 l 25 533 b 163 293 75 469 124 382 b 32 40 110 210 67 128 z "},"ﬁ":{"ha":750,"x_min":0,"x_max":0,"o":"m 278 -24 b 269 147 274 39 271 99 b 263 449 265 250 263 335 b 485 456 346 456 419 456 l 485 -4 l 643 -19 l 643 576 l 485 592 b 261 586 418 592 346 590 l 261 618 b 372 853 261 767 306 853 b 471 726 428 853 471 803 l 613 713 b 372 1021 613 900 525 1021 b 99 618 210 1021 99 871 l 99 564 b 21 542 68 556 42 550 l 50 417 b 100 426 64 421 82 424 b 107 142 101 321 104 238 b 115 -7 108 97 113 50 z "},"ﬂ":{"ha":717,"x_min":0,"x_max":0,"o":"m 278 -24 b 269 147 274 39 271 99 b 263 449 265 250 263 335 b 413 456 317 456 369 456 l 413 585 b 261 579 368 585 317 583 l 261 618 b 372 874 261 779 306 874 b 483 749 424 874 463 825 b 478 326 479 611 478 467 b 483 -11 478 214 479 97 l 647 -26 b 640 326 640 88 640 208 b 661 1001 640 563 649 790 l 526 1013 l 522 943 b 372 1021 483 992 433 1021 b 99 618 210 1021 99 871 l 99 557 b 21 542 68 551 42 547 l 50 417 b 100 426 64 421 82 424 b 107 142 101 321 104 238 b 115 -7 108 97 113 50 z "},"‡":{"ha":722,"x_min":0,"x_max":0,"o":"m 649 306 b 439 315 582 311 514 314 l 439 540 b 654 531 511 539 588 536 l 649 681 b 442 690 582 686 517 689 b 456 969 443 788 447 881 l 261 988 b 246 689 253 896 249 794 b 53 679 182 686 117 679 l 69 529 b 246 539 126 529 188 535 b 244 365 244 481 244 415 l 244 314 b 53 304 181 311 117 304 l 69 154 b 247 164 128 154 189 160 b 263 -165 250 51 254 -58 l 454 -183 b 440 165 446 -68 442 47 b 654 156 513 164 589 161 z "},"‚":{"ha":289,"x_min":0,"x_max":0,"o":"m 172 -150 b 246 208 185 -11 204 82 l 82 258 b 31 -133 56 114 39 13 z "},"„":{"ha":542,"x_min":0,"x_max":0,"o":"m 172 -150 b 246 208 185 -11 204 82 l 82 258 b 31 -133 56 114 39 13 z m 425 -150 b 499 208 438 -11 457 82 l 335 258 b 283 -133 308 114 292 13 z "},"‰":{"ha":1406,"x_min":0,"x_max":0,"o":"m 167 594 b 228 768 167 674 189 768 b 282 644 267 768 282 713 b 225 514 282 575 253 514 b 167 594 189 514 167 547 z m 39 594 b 225 388 39 472 108 388 b 408 644 317 388 408 511 b 228 893 408 779 358 893 b 39 594 108 893 39 735 z m 681 172 b 742 346 681 251 703 346 b 796 222 781 346 796 290 b 739 92 796 153 767 92 b 681 172 703 92 681 125 z m 553 172 b 739 -35 553 50 622 -35 b 922 222 831 -35 922 89 b 742 471 922 357 872 471 b 553 172 622 471 553 313 z m 1146 172 b 1207 346 1146 251 1168 346 b 1261 222 1246 346 1261 290 b 1204 92 1261 153 1232 92 b 1146 172 1168 92 1146 125 z m 1018 172 b 1204 -35 1018 50 1088 -35 b 1388 222 1296 -35 1388 89 b 1207 471 1388 357 1338 471 b 1018 172 1088 471 1018 313 z m 254 -32 b 867 869 451 317 635 611 l 778 925 b 147 8 551 676 347 357 z "},"Â":{"ha":717,"x_min":0,"x_max":0,"o":"m 490 14 l 692 -3 l 510 939 l 253 961 l 4 -46 l 199 -62 l 251 199 l 458 207 z m 368 779 l 436 353 l 281 347 z m 329 1282 b 151 1101 263 1224 207 1164 l 232 1042 b 371 1151 279 1083 325 1119 b 483 1054 407 1122 443 1090 l 564 1115 b 424 1275 518 1171 476 1224 z "},"Ê":{"ha":621,"x_min":0,"x_max":0,"o":"m 574 182 b 285 140 494 167 393 149 b 283 381 283 214 283 283 b 563 401 364 389 482 400 l 536 554 b 286 536 446 553 369 549 b 293 775 288 614 290 696 b 585 785 389 782 493 785 l 585 956 b 121 919 468 956 313 949 b 99 346 110 763 99 510 b 104 -6 99 214 101 104 l 318 -25 b 597 29 447 -25 533 0 z m 332 1282 b 154 1101 265 1224 210 1164 l 235 1042 b 374 1151 282 1083 328 1119 b 486 1054 410 1122 446 1090 l 567 1115 b 426 1275 521 1171 479 1224 z "},"Á":{"ha":717,"x_min":0,"x_max":0,"o":"m 490 14 l 692 -3 l 510 939 l 253 961 l 4 -46 l 199 -62 l 251 199 l 458 207 z m 368 779 l 436 353 l 281 347 z m 339 1064 b 607 1165 433 1113 519 1144 l 532 1289 b 276 1143 436 1247 357 1196 z "},"Ë":{"ha":621,"x_min":0,"x_max":0,"o":"m 574 182 b 285 140 494 167 393 149 b 283 381 283 214 283 283 b 563 401 364 389 482 400 l 536 554 b 286 536 446 553 369 549 b 293 775 288 614 290 696 b 585 785 389 782 493 785 l 585 956 b 121 919 468 956 313 949 b 99 346 110 763 99 510 b 104 -6 99 214 101 104 l 318 -25 b 597 29 447 -25 533 0 z m 193 1261 b 194 1186 194 1236 194 1214 b 182 1094 194 1154 188 1125 l 314 1081 b 333 1171 329 1104 333 1139 b 318 1250 333 1197 333 1228 z m 408 1264 b 410 1189 410 1239 410 1217 b 397 1097 410 1157 403 1128 l 529 1083 b 549 1174 544 1107 549 1142 b 533 1253 549 1200 549 1231 z "},"È":{"ha":621,"x_min":0,"x_max":0,"o":"m 574 182 b 285 140 494 167 393 149 b 283 381 283 214 283 283 b 563 401 364 389 482 400 l 536 554 b 286 536 446 553 369 549 b 293 775 288 614 290 696 b 585 785 389 782 493 785 l 585 956 b 121 919 468 956 313 949 b 99 346 110 763 99 510 b 104 -6 99 214 101 104 l 318 -25 b 597 29 447 -25 533 0 z m 429 1143 b 174 1289 349 1196 269 1247 l 99 1165 b 367 1064 186 1144 272 1113 z "},"Í":{"ha":401,"x_min":0,"x_max":0,"o":"m 136 978 b 124 511 128 807 124 661 b 142 -18 124 346 129 178 l 329 -35 b 311 488 317 122 311 304 b 324 961 311 651 315 815 z m 185 1064 b 453 1165 279 1113 365 1144 l 378 1289 b 122 1143 282 1247 203 1196 z "},"Î":{"ha":401,"x_min":0,"x_max":0,"o":"m 136 978 b 124 511 128 807 124 661 b 142 -18 124 346 129 178 l 329 -35 b 311 488 317 122 311 304 b 324 961 311 651 315 815 z m 203 1282 b 25 1101 136 1224 81 1164 l 106 1042 b 244 1151 153 1083 199 1119 b 357 1054 281 1122 317 1090 l 438 1115 b 297 1275 392 1171 350 1224 z "},"Ï":{"ha":401,"x_min":0,"x_max":0,"o":"m 136 978 b 124 511 128 807 124 661 b 142 -18 124 346 129 178 l 329 -35 b 311 488 317 122 311 304 b 324 961 311 651 315 815 z m 64 1261 b 65 1186 65 1236 65 1214 b 53 1094 65 1154 58 1125 l 185 1081 b 204 1171 200 1104 204 1139 b 189 1250 204 1197 204 1228 z m 279 1264 b 281 1189 281 1239 281 1217 b 268 1097 281 1157 274 1128 l 400 1083 b 419 1174 415 1107 419 1142 b 404 1253 419 1200 419 1231 z "},"Ì":{"ha":401,"x_min":0,"x_max":0,"o":"m 136 978 b 124 511 128 807 124 661 b 142 -18 124 346 129 178 l 329 -35 b 311 488 317 122 311 304 b 324 961 311 651 315 815 z m 314 1143 b 58 1289 233 1196 154 1247 l -17 1165 b 251 1064 71 1144 157 1113 z "},"Ó":{"ha":724,"x_min":0,"x_max":0,"o":"m 47 431 b 365 -47 47 90 200 -47 b 694 503 528 -47 694 167 b 382 981 694 842 544 981 b 47 431 207 981 47 767 z m 232 431 b 382 815 232 665 304 815 b 510 503 449 815 510 725 b 365 117 510 267 436 117 b 232 431 296 117 232 208 z m 344 1064 b 613 1165 439 1113 525 1144 l 538 1289 b 282 1143 442 1247 363 1196 z "},"Ô":{"ha":724,"x_min":0,"x_max":0,"o":"m 47 431 b 365 -47 47 90 200 -47 b 694 503 528 -47 694 167 b 382 981 694 842 544 981 b 47 431 207 981 47 767 z m 232 431 b 382 815 232 665 304 815 b 510 503 449 815 510 725 b 365 117 510 267 436 117 b 232 431 296 117 232 208 z m 349 1282 b 171 1101 282 1224 226 1164 l 251 1042 b 390 1151 299 1083 344 1119 b 503 1054 426 1122 463 1090 l 583 1115 b 443 1275 538 1171 496 1224 z "},"":{"ha":1097,"x_min":0,"x_max":0,"o":"m 567 825 b 583 824 574 824 578 824 b 792 1053 688 824 792 951 b 790 1094 792 1076 790 1085 b 565 850 674 1078 565 965 b 567 825 565 835 567 831 z m 1021 274 b 863 503 919 319 863 401 b 999 725 863 596 906 665 b 756 836 933 801 856 836 b 651 813 726 836 692 828 b 569 789 613 797 585 789 b 485 811 553 789 525 796 b 381 835 446 826 411 835 b 76 500 190 835 76 685 b 221 96 76 368 128 222 b 396 -24 281 17 339 -24 b 482 -1 414 -24 443 -17 b 571 21 521 14 550 21 b 654 -1 589 21 617 14 b 743 -24 692 -17 721 -24 b 881 40 794 -24 840 -3 b 1021 274 922 83 969 161 z "},"Ò":{"ha":724,"x_min":0,"x_max":0,"o":"m 47 431 b 365 -47 47 90 200 -47 b 694 503 528 -47 694 167 b 382 981 694 842 544 981 b 47 431 207 981 47 767 z m 232 431 b 382 815 232 665 304 815 b 510 503 449 815 510 725 b 365 117 510 267 436 117 b 232 431 296 117 232 208 z m 474 1143 b 218 1289 393 1196 314 1247 l 143 1165 b 411 1064 231 1144 317 1113 z "},"Ú":{"ha":749,"x_min":0,"x_max":0,"o":"m 107 951 b 75 326 86 735 75 549 b 378 -24 75 158 196 -24 b 690 506 654 -24 690 340 b 671 957 690 647 681 814 l 482 976 b 500 506 492 822 500 658 b 378 140 500 392 488 140 b 265 326 310 140 265 235 b 296 933 265 544 275 726 z m 356 1064 b 624 1165 450 1113 536 1144 l 549 1289 b 293 1143 453 1247 374 1196 z "},"Û":{"ha":749,"x_min":0,"x_max":0,"o":"m 107 951 b 75 326 86 735 75 549 b 378 -24 75 158 196 -24 b 690 506 654 -24 690 340 b 671 957 690 647 681 814 l 482 976 b 500 506 492 822 500 658 b 378 140 500 392 488 140 b 265 326 310 140 265 235 b 296 933 265 544 275 726 z m 346 1282 b 168 1101 279 1224 224 1164 l 249 1042 b 388 1151 296 1083 342 1119 b 500 1054 424 1122 460 1090 l 581 1115 b 440 1275 535 1171 493 1224 z "},"Ù":{"ha":749,"x_min":0,"x_max":0,"o":"m 107 951 b 75 326 86 735 75 549 b 378 -24 75 158 196 -24 b 690 506 654 -24 690 340 b 671 957 690 647 681 814 l 482 976 b 500 506 492 822 500 658 b 378 140 500 392 488 140 b 265 326 310 140 265 235 b 296 933 265 544 275 726 z m 485 1143 b 229 1289 404 1196 325 1247 l 154 1165 b 422 1064 242 1144 328 1113 z "},"ı":{"ha":328,"x_min":0,"x_max":0,"o":"m 96 663 l 96 -4 l 254 -19 l 254 647 z "},"ˆ":{"ha":694,"x_min":0,"x_max":0,"o":"m 310 933 b 132 753 243 875 188 815 l 213 693 b 351 803 260 735 306 771 b 464 706 388 774 424 742 l 544 767 b 404 926 499 822 457 875 z "},"˜":{"ha":694,"x_min":0,"x_max":0,"o":"m 479 904 b 407 860 463 882 439 860 b 275 899 364 860 329 899 b 146 781 211 899 171 833 l 229 736 b 299 768 246 753 268 768 b 431 743 342 768 367 743 b 563 897 496 743 557 825 z "},"˘":{"ha":694,"x_min":0,"x_max":0,"o":"m 167 910 b 338 724 167 801 231 724 b 529 910 438 724 529 814 l 425 918 b 338 824 425 867 383 824 b 271 901 296 824 271 858 z "},"˙":{"ha":694,"x_min":0,"x_max":0,"o":"m 269 915 b 271 840 271 890 271 868 b 258 749 271 808 264 779 l 411 735 b 431 825 425 758 431 793 b 415 903 431 851 431 881 z "},"˚":{"ha":694,"x_min":0,"x_max":0,"o":"m 338 786 b 283 846 307 786 283 807 b 357 932 283 886 310 932 b 411 874 388 932 411 913 b 338 786 411 833 385 786 z m 335 710 b 508 876 443 710 508 797 b 360 1008 508 956 444 1008 b 186 842 253 1008 186 922 b 335 710 186 764 250 710 z "},"¸":{"ha":694,"x_min":0,"x_max":0,"o":"m 322 -8 b 286 -179 299 -62 288 -111 l 325 -183 b 364 -174 339 -176 351 -174 b 413 -212 392 -174 413 -190 b 354 -251 413 -239 383 -251 b 194 -200 306 -251 236 -222 l 169 -262 b 357 -322 221 -301 289 -322 b 532 -193 467 -322 532 -279 b 414 -86 532 -125 472 -86 b 382 -90 403 -86 393 -87 b 371 -8 371 -57 371 -37 z "},"˝":{"ha":694,"x_min":0,"x_max":0,"o":"m 182 715 b 408 865 263 789 333 835 l 306 961 b 106 781 232 908 169 847 z m 444 713 b 689 831 533 775 610 811 l 599 940 b 378 788 519 897 449 844 z "},"˛":{"ha":694,"x_min":0,"x_max":0,"o":"m 383 11 b 228 -182 294 -40 228 -107 b 358 -317 228 -268 294 -317 b 528 -208 433 -317 492 -261 l 464 -169 b 379 -212 442 -192 410 -212 b 353 -182 365 -212 353 -201 b 488 1 353 -111 419 -44 z "},"ˇ":{"ha":694,"x_min":0,"x_max":0,"o":"m 383 721 b 561 901 450 779 506 839 l 481 961 b 342 851 433 919 388 883 b 229 949 306 881 269 913 l 149 888 b 289 728 194 832 236 779 z "},"Ł":{"ha":551,"x_min":0,"x_max":0,"o":"m 265 -4 b 560 38 389 15 474 28 l 532 199 b 286 171 453 190 364 182 b 279 472 279 271 279 372 b 531 632 358 531 446 588 l 451 721 b 281 608 390 685 333 647 b 300 949 283 719 290 833 l 115 965 b 100 535 104 824 100 679 l 100 479 b -24 363 53 438 11 397 l 39 279 b 103 342 57 299 78 319 b 118 8 106 232 111 119 z "},"ł":{"ha":376,"x_min":0,"x_max":0,"o":"m 110 1015 b 90 513 100 860 93 688 b -24 404 47 474 10 438 l 39 321 l 89 371 l 89 326 b 94 -11 89 214 90 97 l 258 -26 b 251 326 251 88 251 208 l 251 467 b 433 576 311 507 372 544 l 354 665 b 254 603 319 644 286 624 b 272 1003 258 742 264 875 z "},"Š":{"ha":660,"x_min":0,"x_max":0,"o":"m 592 550 b 628 707 619 603 628 672 b 349 989 628 832 518 989 b 65 696 203 989 65 871 b 297 372 65 538 179 454 b 428 206 363 328 428 276 b 338 118 428 142 376 118 b 156 317 260 118 193 217 l 21 251 b 343 -44 74 132 167 -44 b 617 229 472 -44 617 51 b 367 532 617 375 519 436 b 256 699 300 574 256 631 b 351 826 256 761 292 826 b 438 715 397 826 438 788 b 419 607 438 686 431 649 z m 397 1069 b 575 1250 464 1128 519 1188 l 494 1310 b 356 1200 447 1268 401 1232 b 243 1297 319 1229 283 1261 l 163 1236 b 303 1076 208 1181 250 1128 z "},"š":{"ha":482,"x_min":0,"x_max":0,"o":"m 325 385 l 451 374 b 460 454 457 403 460 429 b 288 657 460 579 393 657 b 68 432 185 657 68 556 b 214 225 68 317 140 265 b 278 143 250 204 278 174 b 226 99 278 114 251 99 b 110 194 182 99 139 144 l 35 110 b 260 -29 79 36 160 -29 b 454 153 353 -29 454 32 b 300 342 454 253 357 310 b 232 453 244 378 232 399 b 288 521 232 492 260 521 b 329 438 307 521 329 500 b 325 385 329 424 328 406 z m 319 721 b 497 901 386 779 442 839 l 417 961 b 278 851 369 919 324 883 b 165 949 242 881 206 913 l 85 888 b 225 728 131 832 172 779 z "},"Ž":{"ha":636,"x_min":0,"x_max":0,"o":"m 76 -21 b 322 10 201 0 278 10 b 588 -11 408 10 504 0 l 611 154 b 369 174 538 165 454 174 b 268 169 336 174 301 172 b 646 831 407 388 521 593 l 622 951 b 76 911 388 949 182 933 l 103 749 b 438 781 196 763 311 774 b 54 125 317 544 206 367 z m 393 1069 b 571 1250 460 1128 515 1188 l 490 1310 b 351 1200 443 1268 397 1232 b 239 1297 315 1229 279 1261 l 158 1236 b 299 1076 204 1181 246 1128 z "},"ž":{"ha":478,"x_min":0,"x_max":0,"o":"m 86 -6 b 278 15 179 10 240 15 b 438 7 339 15 394 11 l 456 135 b 278 144 406 140 342 144 l 211 144 b 453 531 276 263 361 403 l 431 658 b 314 663 393 661 353 663 b 76 640 233 663 153 656 l 103 503 b 293 529 161 517 224 524 b 61 138 226 439 153 307 z m 303 721 b 481 901 369 779 425 839 l 400 961 b 261 851 353 919 307 883 b 149 949 225 881 189 913 l 68 888 b 208 728 114 832 156 779 z "},"¦":{"ha":694,"x_min":0,"x_max":0,"o":"m 403 585 b 394 1056 400 749 394 901 l 283 1056 b 290 592 283 897 288 744 z m 294 194 b 279 -331 293 7 290 -165 l 390 -340 b 406 185 400 -176 404 8 z "},"Ð":{"ha":711,"x_min":0,"x_max":0,"o":"m 83 926 b 96 551 90 803 94 686 b 17 550 69 550 43 550 l 33 400 b 94 401 53 400 74 400 b 76 -1 92 269 85 128 b 265 -21 135 -8 253 -21 b 669 536 529 -21 669 265 b 331 974 669 761 560 974 b 83 926 253 974 163 954 z m 390 558 b 281 563 358 561 325 563 l 272 796 b 338 807 294 804 317 807 b 490 507 418 807 490 685 b 300 149 490 325 382 149 b 272 160 289 149 279 151 b 281 413 276 239 279 325 b 396 408 321 413 360 411 z "},"ð":{"ha":511,"x_min":0,"x_max":0,"o":"m 443 908 b 317 867 399 896 357 882 b 239 961 290 901 263 933 l 117 875 b 182 810 139 856 161 833 b 43 738 129 785 82 760 l 75 658 b 238 739 117 683 174 713 b 303 621 263 703 285 663 b 224 638 278 631 251 638 b 24 249 97 638 24 382 b 240 -42 24 100 85 -42 b 515 389 374 -42 515 131 b 372 790 515 536 449 675 b 488 821 410 803 450 813 z m 356 389 b 247 111 356 222 299 111 b 183 249 197 111 183 178 b 272 506 183 335 218 506 b 347 481 290 506 324 492 b 356 389 353 450 356 419 z "},"Ý":{"ha":617,"x_min":0,"x_max":0,"o":"m 419 -29 b 414 185 415 43 414 115 b 417 381 414 249 415 318 b 664 976 518 593 597 786 l 503 992 b 324 538 460 857 400 706 b 196 910 257 686 219 790 l 22 926 b 224 372 36 804 124 583 l 224 265 b 236 -10 224 167 228 76 z m 292 1064 b 560 1165 386 1113 472 1144 l 485 1289 b 229 1143 389 1247 310 1196 z "},"ý":{"ha":522,"x_min":0,"x_max":0,"o":"m 399 696 b 271 181 353 538 313 372 b 204 617 236 315 217 458 l 49 632 b 217 -12 68 410 115 181 b 143 -315 192 -107 165 -207 l 296 -329 b 532 618 367 18 449 361 z m 233 715 b 501 817 328 764 414 796 l 426 940 b 171 794 331 899 251 847 z "},"Þ":{"ha":646,"x_min":0,"x_max":0,"o":"m 108 978 b 96 511 100 807 96 661 b 114 -18 96 346 101 178 l 301 -35 b 293 86 299 4 294 44 b 294 118 294 97 294 107 b 660 497 503 179 660 317 b 346 825 660 703 496 825 b 288 821 326 825 307 824 b 296 961 289 868 292 915 z m 346 663 b 469 497 406 663 469 600 b 285 278 469 401 399 315 b 282 488 283 346 282 417 b 283 646 282 540 282 593 b 346 663 303 656 321 663 z "},"þ":{"ha":569,"x_min":0,"x_max":0,"o":"m 103 1018 b 88 507 93 838 88 693 b 100 -324 88 214 93 -40 l 263 -340 b 253 8 257 -229 254 -110 b 360 -29 285 -17 322 -29 b 556 411 486 -29 556 207 b 424 654 556 521 521 654 b 244 507 364 654 299 593 b 261 1004 244 690 250 822 z m 244 269 b 360 474 292 422 326 474 b 400 350 396 474 400 422 b 313 119 400 257 363 119 b 246 161 278 119 267 132 b 244 269 246 196 244 236 z "},"−":{"ha":1157,"x_min":0,"x_max":0,"o":"m 1000 489 b 665 504 896 501 775 504 b 171 493 482 504 326 493 l 171 326 b 679 338 344 328 513 338 b 975 322 788 338 883 335 z "},"×":{"ha":1157,"x_min":0,"x_max":0,"o":"m 179 725 b 467 418 264 624 364 521 b 197 133 371 319 279 219 l 301 15 b 586 301 399 106 492 204 b 872 11 688 203 788 104 l 990 129 b 699 415 897 225 799 319 b 997 679 794 511 893 601 l 897 814 b 579 531 790 732 683 633 b 313 811 486 622 396 715 z "},"¹":{"ha":381,"x_min":0,"x_max":0,"o":"m 140 656 l 174 701 b 168 524 169 644 168 585 b 174 351 168 467 169 408 l 313 340 b 301 596 306 429 301 518 b 318 882 301 683 301 779 l 188 893 b 63 710 149 826 110 767 z "},"²":{"ha":506,"x_min":0,"x_max":0,"o":"m 164 654 b 290 767 207 703 265 767 b 313 736 306 767 313 753 b 63 432 313 685 188 525 l 115 329 b 329 354 207 349 271 354 b 415 350 356 354 385 353 l 425 472 b 274 469 368 472 321 472 b 443 743 372 574 443 671 b 290 889 443 819 393 889 b 72 735 199 889 128 801 z "},"³":{"ha":450,"x_min":0,"x_max":0,"o":"m 124 726 b 238 776 171 761 208 776 b 257 753 253 776 257 767 b 75 639 257 728 197 675 l 113 550 b 176 563 131 560 157 563 b 240 513 218 563 240 538 b 122 457 240 474 171 457 b 64 460 100 457 81 458 l 76 346 b 156 338 97 340 129 338 b 378 513 261 338 378 390 b 285 619 378 567 344 608 b 388 753 343 650 388 696 b 238 885 388 826 313 885 b 63 818 176 885 126 865 z "},"¼":{"ha":1071,"x_min":0,"x_max":0,"o":"m 944 -35 b 942 122 942 15 942 74 l 997 122 l 1008 225 l 943 231 b 967 504 946 363 967 504 l 792 519 b 596 179 729 450 596 201 l 719 114 b 817 124 756 118 788 124 b 821 -24 817 76 817 22 z m 744 225 b 836 392 760 258 799 332 b 817 231 825 347 821 293 b 744 225 793 231 767 228 z m 275 -32 b 888 869 472 317 656 611 l 799 925 b 168 8 572 676 368 357 z m 140 656 l 174 701 b 168 524 169 644 168 585 b 174 351 168 467 169 408 l 313 340 b 301 596 306 429 301 518 b 318 882 301 683 301 779 l 188 893 b 63 710 149 826 110 767 z "},"½":{"ha":1101,"x_min":0,"x_max":0,"o":"m 275 -32 b 888 869 472 317 656 611 l 799 925 b 168 8 572 676 368 357 z m 140 656 l 174 701 b 168 524 169 644 168 585 b 174 351 168 467 169 408 l 313 340 b 301 596 306 429 301 518 b 318 882 301 683 301 779 l 188 893 b 63 710 149 826 110 767 z m 760 283 b 886 396 803 332 861 396 b 908 365 901 396 908 382 b 658 61 908 314 783 154 l 711 -42 b 925 -17 803 -22 867 -17 b 1011 -21 951 -17 981 -18 l 1021 101 b 869 99 964 101 917 101 b 1039 372 968 203 1039 300 b 886 518 1039 449 989 518 b 668 364 794 518 724 431 z "},"¾":{"ha":1086,"x_min":0,"x_max":0,"o":"m 960 -35 b 957 122 957 15 957 74 l 1013 122 l 1024 225 l 958 231 b 982 504 961 363 982 504 l 807 519 b 611 179 744 450 611 201 l 735 114 b 832 124 771 118 803 124 b 836 -24 832 76 832 22 z m 760 225 b 851 392 775 258 814 332 b 832 231 840 347 836 293 b 760 225 808 231 782 228 z m 290 -32 b 903 869 488 317 671 611 l 814 925 b 183 8 588 676 383 357 z m 124 726 b 238 776 171 761 208 776 b 257 753 253 776 257 767 b 75 639 257 728 197 675 l 113 550 b 176 563 131 560 157 563 b 240 513 218 563 240 538 b 122 457 240 474 171 457 b 64 460 100 457 81 458 l 76 346 b 156 338 97 340 129 338 b 378 513 261 338 378 390 b 285 619 378 567 344 608 b 388 753 343 650 388 696 b 238 885 388 826 313 885 b 63 818 176 885 126 865 z "},"₣":{"ha":1004,"x_min":0,"x_max":0,"o":"m 585 956 b 121 919 468 956 313 949 b 99 346 110 763 99 510 b 101 -6 99 233 100 107 l 289 -26 b 283 356 285 97 283 235 b 563 375 376 367 471 372 l 535 528 b 285 507 446 528 368 518 b 293 775 288 576 289 706 b 585 785 390 782 493 785 z m 1010 614 b 910 664 986 642 950 664 b 772 518 864 664 814 607 b 750 589 764 539 757 561 l 646 600 b 671 207 665 494 671 354 b 667 -18 671 117 668 50 l 828 -32 b 833 207 832 51 833 129 b 831 354 833 257 832 306 b 918 501 847 440 875 501 b 974 486 940 501 960 496 z "},"Ğ":{"ha":692,"x_min":0,"x_max":0,"o":"m 625 538 b 638 661 633 582 638 624 b 372 976 638 901 478 976 b 56 392 176 976 56 690 b 374 -39 56 111 185 -39 b 668 351 551 -39 668 206 b 660 467 668 356 664 431 b 343 436 554 454 453 443 l 372 299 b 479 308 413 306 440 308 b 353 111 463 192 433 111 b 246 425 283 111 246 225 b 386 813 246 608 322 813 b 468 631 444 813 468 719 b 463 551 468 601 467 572 z m 204 1258 b 375 1072 204 1150 268 1072 b 567 1258 475 1072 567 1163 l 463 1267 b 375 1172 463 1215 421 1172 b 308 1250 333 1172 308 1207 z "},"ğ":{"ha":561,"x_min":0,"x_max":0,"o":"m 268 -186 b 142 -81 208 -186 168 -132 l 25 -131 b 289 -336 72 -225 164 -336 b 513 206 467 -336 513 -28 b 531 574 513 401 521 525 l 433 588 b 272 658 394 625 339 658 b 38 204 171 658 38 433 b 208 -11 38 51 115 -11 b 364 121 271 -11 321 43 b 268 -186 364 -49 326 -186 z m 368 368 b 242 117 342 208 264 117 b 201 204 221 117 201 143 b 307 517 201 360 263 517 b 371 474 331 517 350 496 z m 156 910 b 326 724 156 801 219 724 b 518 910 426 724 518 814 l 414 918 b 326 824 414 867 372 824 b 260 901 285 824 260 858 z "},"İ":{"ha":401,"x_min":0,"x_max":0,"o":"m 136 978 b 124 511 128 807 124 661 b 142 -18 124 346 129 178 l 329 -35 b 311 488 317 122 311 304 b 324 961 311 651 315 815 z m 163 1264 b 164 1189 164 1239 164 1217 b 151 1097 164 1157 157 1128 l 304 1083 b 324 1174 318 1107 324 1142 b 308 1251 324 1200 324 1229 z "},"Ş":{"ha":617,"x_min":0,"x_max":0,"o":"m 592 550 b 628 707 619 603 628 672 b 349 989 628 832 518 989 b 65 696 203 989 65 871 b 297 372 65 538 179 454 b 428 206 363 328 428 276 b 338 118 428 142 376 118 b 156 317 260 118 193 217 l 21 251 b 297 -40 68 143 150 -12 b 274 -179 282 -82 275 -125 l 313 -183 b 351 -174 326 -176 339 -174 b 400 -212 379 -174 400 -190 b 342 -251 400 -239 371 -251 b 182 -200 293 -251 224 -222 l 157 -262 b 344 -322 208 -301 276 -322 b 519 -193 454 -322 519 -279 b 401 -86 519 -125 460 -86 b 369 -90 390 -86 381 -87 b 358 -43 363 -72 360 -57 b 617 229 483 -36 617 58 b 367 532 617 375 519 436 b 256 699 300 574 256 631 b 351 826 256 761 292 826 b 438 715 397 826 438 788 b 419 607 438 686 431 649 z "},"ş":{"ha":482,"x_min":0,"x_max":0,"o":"m 325 385 l 451 374 b 460 454 457 403 460 429 b 288 657 460 579 393 657 b 68 432 185 657 68 556 b 214 225 68 317 140 265 b 278 143 250 204 278 174 b 226 99 278 114 251 99 b 110 194 182 99 139 144 l 35 110 b 210 -24 71 49 132 -6 b 181 -179 190 -71 182 -117 l 219 -183 b 258 -174 233 -176 246 -174 b 307 -212 286 -174 307 -190 b 249 -251 307 -239 278 -251 b 89 -200 200 -251 131 -222 l 64 -262 b 251 -322 115 -301 183 -322 b 426 -193 361 -322 426 -279 b 308 -86 426 -125 367 -86 b 276 -90 297 -86 288 -87 b 265 -29 268 -65 265 -49 b 454 153 357 -26 454 33 b 300 342 454 253 357 310 b 232 453 244 378 232 399 b 288 521 232 492 260 521 b 329 438 307 521 329 500 b 325 385 329 424 328 406 z "},"Ć":{"ha":669,"x_min":0,"x_max":0,"o":"m 626 533 b 386 976 622 728 610 976 b 36 360 133 976 36 600 b 349 -42 36 138 140 -42 b 656 310 528 -42 611 99 l 479 324 b 349 136 454 233 425 136 b 221 374 260 136 221 232 b 374 799 221 511 283 799 b 447 550 444 799 447 650 z m 354 1064 b 622 1165 449 1113 535 1144 l 547 1289 b 292 1143 451 1247 372 1196 z "},"ć":{"ha":492,"x_min":0,"x_max":0,"o":"m 454 343 b 467 413 463 363 467 386 b 281 663 467 526 401 663 b 44 224 89 663 44 367 b 258 -29 44 40 156 -29 b 479 192 357 -29 432 63 l 376 265 b 258 119 332 181 290 119 b 207 224 233 119 207 149 b 281 500 207 315 221 500 b 325 400 307 500 325 446 b 322 356 325 385 324 365 z m 244 715 b 513 817 339 764 425 796 l 438 940 b 182 794 342 899 263 847 z "},"Č":{"ha":669,"x_min":0,"x_max":0,"o":"m 626 533 b 386 976 622 728 610 976 b 36 360 133 976 36 600 b 349 -42 36 138 140 -42 b 656 310 528 -42 611 99 l 479 324 b 349 136 454 233 425 136 b 221 374 260 136 221 232 b 374 799 221 511 283 799 b 447 550 444 799 447 650 z m 418 1069 b 596 1250 485 1128 540 1188 l 515 1310 b 376 1200 468 1268 422 1232 b 264 1297 340 1229 304 1261 l 183 1236 b 324 1076 229 1181 271 1128 z "},"č":{"ha":492,"x_min":0,"x_max":0,"o":"m 454 343 b 467 413 463 363 467 386 b 281 663 467 526 401 663 b 44 224 89 663 44 367 b 258 -29 44 40 156 -29 b 479 192 357 -29 432 63 l 376 265 b 258 119 332 181 290 119 b 207 224 233 119 207 149 b 281 500 207 315 221 500 b 325 400 307 500 325 446 b 322 356 325 385 324 365 z m 311 721 b 489 901 378 779 433 839 l 408 961 b 269 851 361 919 315 883 b 157 949 233 881 197 913 l 76 888 b 217 728 122 832 164 779 z "},"đ":{"ha":599,"x_min":0,"x_max":0,"o":"m 344 1019 b 347 885 344 972 347 925 b 93 875 264 882 175 875 l 110 751 b 349 768 186 751 271 763 b 347 629 349 721 347 675 b 215 663 307 649 265 663 b 36 257 117 663 36 421 b 226 3 36 113 74 3 b 356 122 276 3 318 47 b 364 -8 360 47 364 -8 l 488 -19 b 510 722 501 236 510 469 l 510 769 b 632 760 551 768 593 764 l 626 882 b 510 885 589 883 551 885 l 510 1006 z m 350 367 b 246 153 315 238 269 153 b 199 257 208 153 199 197 b 283 526 199 365 233 526 b 351 500 306 526 329 517 z "},"­":{"ha":450,"x_min":0,"x_max":0,"o":"m 393 389 b 317 393 369 392 344 393 b 47 381 231 393 138 381 l 64 231 b 317 243 149 231 238 243 b 399 239 343 243 371 242 z "},"·":{"ha":361,"x_min":0,"x_max":0,"o":"m 81 571 b 82 467 82 538 82 501 b 69 319 82 415 75 367 l 257 304 b 276 451 272 343 276 397 b 261 554 276 488 271 524 z "},"€":{"ha":672,"x_min":0,"x_max":0,"o":"m 21 436 l 67 444 l 63 388 l 4 382 l 21 288 l 63 293 b 344 -25 75 113 169 -25 b 607 253 497 -25 569 111 l 454 268 b 344 114 435 193 408 114 b 231 306 272 114 238 190 b 547 311 340 311 454 311 l 542 415 b 232 403 428 415 328 410 b 239 464 233 422 236 443 b 547 474 346 471 456 474 l 542 578 b 260 564 440 578 347 572 b 381 754 286 664 329 754 b 458 633 453 754 458 682 l 615 618 b 378 893 611 742 546 893 b 85 542 215 893 124 719 l 4 531 z "},"ħ":{"ha":590,"x_min":0,"x_max":0,"o":"m 78 1001 l 83 871 b -7 868 53 868 22 868 l 10 746 b 86 747 35 746 60 746 b 88 579 86 693 88 636 b 69 -6 88 371 82 160 l 232 -21 b 246 294 238 72 243 179 b 342 489 274 400 310 489 b 379 415 379 489 379 442 b 369 14 379 315 376 160 l 531 -1 b 546 419 542 158 546 314 b 382 644 546 496 504 644 b 251 565 335 644 290 614 b 249 758 251 629 250 694 l 263 758 b 344 754 289 758 317 757 l 339 876 b 263 881 315 879 290 881 l 244 881 l 240 986 z "},"ń":{"ha":589,"x_min":0,"x_max":0,"o":"m 71 601 b 63 367 65 522 63 446 b 78 -10 63 242 68 115 l 240 -25 b 229 181 236 46 232 114 b 329 511 240 328 301 511 b 375 329 365 511 375 415 b 360 29 375 236 371 144 l 522 14 b 540 356 535 139 540 256 b 357 661 540 497 513 661 b 194 500 296 661 240 592 b 174 590 188 529 179 560 z m 206 715 b 474 817 300 764 386 796 l 399 940 b 143 794 303 899 224 847 z "},"ĩ":{"ha":328,"x_min":0,"x_max":0,"o":"m 96 663 l 96 -4 l 254 -19 l 254 647 z m 289 904 b 217 860 272 882 249 860 b 85 899 174 860 139 899 b -44 781 21 899 -19 833 l 39 736 b 108 768 56 753 78 768 b 240 743 151 768 176 743 b 372 897 306 743 367 825 z "},"ĳ":{"ha":678,"x_min":0,"x_max":0,"o":"m 96 663 l 96 -4 l 254 -19 l 254 647 z m 107 907 l 93 753 l 249 733 l 263 889 z m 447 650 b 454 -21 454 453 454 101 b 386 -178 454 -126 419 -178 b 306 -136 372 -178 340 -162 l 257 -243 b 425 -340 308 -307 385 -340 b 610 -7 518 -340 610 -232 b 597 635 610 107 608 449 z m 456 907 l 442 753 l 597 733 l 611 889 z "},"ĵ":{"ha":350,"x_min":0,"x_max":0,"o":"m 119 650 b 126 -21 126 453 126 101 b 58 -164 126 -117 92 -164 b -22 -122 44 -164 13 -149 l -71 -229 b 125 -340 -11 -300 79 -340 b 282 -7 204 -340 282 -232 b 269 635 282 107 281 449 z m 138 933 b -40 753 71 875 15 815 l 40 693 b 179 803 88 735 133 771 b 292 706 215 774 251 742 l 372 767 b 232 926 326 822 285 875 z "},"ĸ":{"ha":569,"x_min":0,"x_max":0,"o":"m 461 690 b 244 347 413 579 342 467 b 265 656 244 456 253 556 l 103 668 b 82 326 89 563 82 446 b 88 -11 82 214 83 97 l 250 -26 b 244 244 246 61 244 153 b 472 -32 336 149 410 65 l 578 68 b 406 304 528 154 474 225 b 572 593 472 396 529 493 z "},"Ń":{"ha":756,"x_min":0,"x_max":0,"o":"m 238 -42 b 236 614 238 192 238 408 b 529 4 342 425 439 200 l 685 -11 b 696 332 690 81 696 228 b 694 978 696 557 694 778 l 521 993 b 540 332 531 792 536 557 b 293 908 444 504 368 701 l 108 926 b 71 143 89 694 71 411 b 75 -24 71 88 72 33 z m 303 1024 b 571 1125 397 1072 483 1104 l 496 1249 b 240 1103 400 1207 321 1156 z "},"Ĩ":{"ha":401,"x_min":0,"x_max":0,"o":"m 136 978 b 124 511 128 807 124 661 b 142 -18 124 346 129 178 l 329 -35 b 311 488 317 122 311 304 b 324 961 311 651 315 815 z m 344 1213 b 272 1168 328 1190 304 1168 b 140 1207 229 1168 194 1207 b 11 1089 76 1207 36 1142 l 94 1044 b 164 1076 111 1061 133 1076 b 296 1051 207 1076 232 1051 b 428 1206 361 1051 422 1133 z "},"\u0011":{"ha":0,"x_min":0,"x_max":0,"o":""},"̇":{"ha":694,"x_min":0,"x_max":0,"o":"m 269 915 b 271 840 271 890 271 868 b 258 749 271 808 264 779 l 411 735 b 431 825 425 758 431 793 b 415 903 431 851 431 881 z "},"ŀ":{"ha":689,"x_min":0,"x_max":0,"o":"m 110 1015 b 89 326 97 806 89 563 b 94 -11 89 214 90 97 l 258 -26 b 251 326 251 88 251 208 b 272 1003 251 563 260 792 z m 342 508 b 343 433 343 483 343 461 b 331 342 343 401 336 372 l 483 328 b 503 418 497 351 503 386 b 488 496 503 444 503 474 z "},"Ŀ":{"ha":610,"x_min":0,"x_max":0,"o":"m 265 -4 b 560 38 389 15 474 28 l 532 199 b 286 171 453 190 364 182 b 279 479 279 274 279 378 b 300 949 279 632 286 789 l 115 965 b 100 535 104 824 100 679 b 118 8 100 363 107 185 z m 432 585 b 433 510 433 560 433 538 b 421 418 433 478 426 449 l 574 404 b 593 494 588 428 593 463 b 578 572 593 521 593 550 z "},"Ŕ":{"ha":729,"x_min":0,"x_max":0,"o":"m 275 -33 b 288 368 281 99 285 239 b 601 -62 408 208 518 63 l 735 36 b 476 385 653 154 564 275 b 708 700 600 465 708 575 b 421 997 708 897 574 997 b 103 925 319 997 203 972 b 104 679 104 843 104 761 b 86 -12 104 449 99 218 z m 293 811 b 421 835 340 828 382 835 b 539 707 482 835 539 797 b 292 463 539 638 431 528 b 293 811 293 576 293 696 z m 332 1024 b 600 1125 426 1072 513 1104 l 525 1249 b 269 1103 429 1207 350 1156 z "},"Ř":{"ha":729,"x_min":0,"x_max":0,"o":"m 275 -33 b 288 368 281 99 285 239 b 601 -62 408 208 518 63 l 735 36 b 476 385 653 154 564 275 b 708 700 600 465 708 575 b 421 997 708 897 574 997 b 103 925 319 997 203 972 b 104 679 104 843 104 761 b 86 -12 104 449 99 218 z m 293 811 b 421 835 340 828 382 835 b 539 707 482 835 539 797 b 292 463 539 638 431 528 b 293 811 293 576 293 696 z m 449 1029 b 626 1210 515 1088 571 1147 l 546 1269 b 407 1160 499 1228 453 1192 b 294 1257 371 1189 335 1221 l 214 1196 b 354 1036 260 1140 301 1088 z "},"Ĵ":{"ha":569,"x_min":0,"x_max":0,"o":"m 14 335 b 3 242 7 303 3 272 b 261 -42 3 86 101 -42 b 510 333 446 -42 510 192 b 490 957 510 485 510 707 l 294 974 b 319 333 314 724 319 485 b 240 128 319 256 303 128 b 172 258 200 128 172 185 b 178 318 172 276 174 297 z m 340 1242 b 163 1061 274 1183 218 1124 l 243 1001 b 382 1111 290 1043 336 1079 b 494 1014 418 1082 454 1050 l 575 1075 b 435 1235 529 1131 488 1183 z "},"Ĳ":{"ha":943,"x_min":0,"x_max":0,"o":"m 136 978 b 124 511 128 807 124 661 b 142 -18 124 346 129 178 l 329 -35 b 311 488 317 122 311 304 b 324 961 311 651 315 815 z m 388 335 b 376 242 381 303 376 272 b 635 -42 376 86 475 -42 b 883 333 819 -42 883 192 b 864 957 883 485 883 707 l 668 974 b 693 333 688 724 693 485 b 614 128 693 256 676 128 b 546 258 574 128 546 185 b 551 318 546 276 547 297 z "},"ř":{"ha":418,"x_min":0,"x_max":0,"o":"m 424 614 b 324 664 400 642 364 664 b 186 518 278 664 228 607 b 164 589 178 539 171 561 l 60 600 b 85 207 79 494 85 354 b 81 -18 85 117 82 50 l 242 -32 b 247 207 246 51 247 129 b 244 354 247 257 246 306 b 332 501 261 440 289 501 b 388 486 354 501 374 496 z m 265 721 b 443 901 332 779 388 839 l 363 961 b 224 851 315 919 269 883 b 111 949 188 881 151 913 l 31 888 b 171 728 76 832 118 779 z "},"¯":{"ha":560,"x_min":0,"x_max":0,"o":"m 492 890 b 360 894 451 893 410 894 b 63 882 265 894 161 882 l 79 746 b 360 758 172 746 272 758 b 497 754 403 758 453 757 z "},"ķ":{"ha":569,"x_min":0,"x_max":0,"o":"m 461 690 b 244 347 413 579 342 467 b 265 1003 244 576 253 799 l 103 1015 b 82 326 89 806 82 563 b 88 -11 82 214 83 97 l 250 -26 b 244 244 246 61 244 153 b 472 -32 336 149 410 65 l 578 68 b 406 304 528 154 474 225 b 572 593 472 396 529 493 z m 243 -85 b 206 -331 236 -171 225 -236 l 278 -342 b 400 -128 336 -267 385 -203 z "},"ŗ":{"ha":418,"x_min":0,"x_max":0,"o":"m 424 614 b 324 664 400 642 364 664 b 186 518 278 664 228 607 b 164 589 178 539 171 561 l 60 600 b 85 207 79 494 85 354 b 81 -18 85 117 82 50 l 242 -32 b 247 207 246 51 247 129 b 244 354 247 257 246 306 b 332 501 261 440 289 501 b 388 486 354 501 374 496 z m 79 -85 b 42 -331 72 -171 61 -236 l 114 -342 b 236 -128 172 -267 221 -203 z "},"Ŗ":{"ha":729,"x_min":0,"x_max":0,"o":"m 275 -33 b 288 368 281 99 285 239 b 601 -62 408 208 518 63 l 735 36 b 476 385 653 154 564 275 b 708 700 600 465 708 575 b 421 997 708 897 574 997 b 103 925 319 997 203 972 b 104 679 104 843 104 761 b 86 -12 104 449 99 218 z m 293 811 b 421 835 340 828 382 835 b 539 707 482 835 539 797 b 292 463 539 638 431 528 b 293 811 293 576 293 696 z m 318 -85 b 281 -331 311 -171 300 -236 l 353 -342 b 475 -128 411 -267 460 -203 z "},"ȷ":{"ha":350,"x_min":0,"x_max":0,"o":"m 119 650 b 126 -21 126 453 126 101 b 58 -178 126 -126 92 -178 b -22 -136 44 -178 13 -162 l -71 -243 b 97 -340 -19 -307 57 -340 b 282 -7 190 -340 282 -232 b 269 635 282 107 281 449 z "},"":{"ha":325,"x_min":0,"x_max":0,"o":"m 88 1264 b 89 1189 89 1239 89 1217 b 76 1097 89 1157 82 1128 l 229 1083 b 249 1174 243 1107 249 1142 b 233 1251 249 1200 249 1229 z "}}}
